<?xml version="1.0" encoding="UTF-8"?>
<svg version="1.1" xmlns="http://www.w3.org/2000/svg" width="420" height="247">
<path d="M0 0 C243.21 0 486.42 0 737 0 C737 81.51 737 163.02 737 247 C493.79 247 250.58 247 0 247 C0 165.49 0 83.98 0 0 Z " fill="#FEFEFE" transform="translate(0,0)"/>
<path d="M0 0 C0 1.65 0 3.3 0 5 C1.65 5 3.3 5 5 5 C7.52078164 19.33733458 10.00516202 33.67898711 12.25 48.0625 C12.41274414 49.08778809 12.57548828 50.11307617 12.74316406 51.16943359 C13.80850761 58.09642855 14.50164744 65.00990893 15 72 C14.01 72.495 14.01 72.495 13 73 C12.34786708 75.02463255 12.34786708 75.02463255 12 77 C13.65 77 15.3 77 17 77 C21.00710611 103.00536042 21.00710611 103.00536042 22.3125 115.125 C22.40063965 115.91688721 22.4887793 116.70877441 22.57958984 117.5246582 C22.76515688 119.34571395 22.88985152 121.17283102 23 123 C21.47937883 124.52062117 19.90643007 124.42014597 17.79541016 124.73681641 C16.89169174 124.87455475 15.98797333 125.01229309 15.05686951 125.15420532 C14.06099319 125.30183319 13.06511688 125.44946106 12.0390625 125.6015625 C11.00181534 125.7589389 9.96456818 125.91631531 8.89588928 126.07846069 C5.47277791 126.59746598 2.04889152 127.1111689 -1.375 127.625 C-6.12675379 128.34339613 -10.87795762 129.06536188 -15.62890625 129.7890625 C-16.83167709 129.97212952 -18.03444794 130.15519653 -19.27366638 130.34381104 C-27.11642605 131.54319853 -34.94978568 132.79116459 -42.77734375 134.0859375 C-43.7654303 134.24913483 -44.75351685 134.41233215 -45.77154541 134.58047485 C-50.42576144 135.35102206 -55.07852425 136.12947832 -59.72998047 136.91650391 C-61.39939015 137.19447961 -63.06882244 137.47231956 -64.73828125 137.75 C-65.47771469 137.87772797 -66.21714813 138.00545593 -66.97898865 138.13705444 C-71.39996504 138.86676159 -75.54017002 139.11677814 -80 139 C-80 137.35 -80 135.7 -80 134 C-81.98 134 -83.96 134 -86 134 C-87.71267146 124.03225208 -89.32381077 114.07668168 -90.5703125 104.0390625 C-90.92471552 101.12951163 -90.92471552 101.12951163 -91.55078125 98.8515625 C-92.34129891 95.59325495 -92.05563983 92.33839005 -92 89 C-92.99 89 -93.98 89 -95 89 C-95.495 86.525 -95.495 86.525 -96 84 C-97.32 84 -98.64 84 -100 84 C-100.18175781 82.77667969 -100.36351562 81.55335938 -100.55078125 80.29296875 C-100.80452662 78.59112184 -101.05844633 76.88930091 -101.3125 75.1875 C-101.44567627 74.29417969 -101.57885254 73.40085937 -101.71606445 72.48046875 C-102.41081861 67.84389036 -103.12072809 63.21058739 -103.8671875 58.58203125 C-104.00471436 57.72778564 -104.14224121 56.87354004 -104.28393555 55.9934082 C-104.5483083 54.35999085 -104.8153012 52.72699493 -105.08520508 51.09448242 C-105.63995117 47.66443263 -106 44.48550296 -106 41 C-104.68 41 -103.36 41 -102 41 C-102 39.35 -102 37.7 -102 36 C-102.804375 36.020625 -103.60875 36.04125 -104.4375 36.0625 C-107 36 -107 36 -108 35 C-108.91111271 28.62221102 -109.0492441 22.43378133 -109 16 C-108.27224365 15.89977539 -107.5444873 15.79955078 -106.79467773 15.69628906 C-89.48123226 13.29960713 -72.22986324 10.69102079 -55.05395508 7.44287109 C-53.59638794 7.16950928 -53.59638794 7.16950928 -52.109375 6.890625 C-51.23120117 6.72336914 -50.35302734 6.55611328 -49.44824219 6.38378906 C-46.23939416 5.88076661 -43.23987708 5.85600546 -40 6 C-39.505 8.475 -39.505 8.475 -39 11 C-37.35 11 -35.7 11 -34 11 C-33.30516781 15.14410935 -32.61144192 19.28840198 -31.91870117 23.43286133 C-31.68332158 24.84013768 -31.44764981 26.2473652 -31.21166992 27.65454102 C-30.87079619 29.68753214 -30.53100461 31.72070174 -30.19140625 33.75390625 C-29.88505249 35.58417358 -29.88505249 35.58417358 -29.57250977 37.45141602 C-27.86361189 48.04366789 -27.86361189 48.04366789 -27.9375 53.4375 C-27.94652344 54.30246094 -27.95554687 55.16742188 -27.96484375 56.05859375 C-27.97644531 56.69925781 -27.98804688 57.33992188 -28 58 C-26.02 58 -24.04 58 -22 58 C-21.66089006 60.04071515 -21.32897296 62.08262621 -21 64.125 C-20.7215625 65.83042969 -20.7215625 65.83042969 -20.4375 67.5703125 C-20.03043951 70.76137602 -19.92190098 73.78817791 -20 77 C-15.545 76.505 -15.545 76.505 -11 76 C-11 74.35 -11 72.7 -11 71 C-12.65 71 -14.3 71 -16 71 C-18.77463572 54.81611192 -21.4123743 38.61873524 -23.8125 22.375 C-23.97859268 21.26055511 -23.97859268 21.26055511 -24.14804077 20.12359619 C-24.46270503 18.00735069 -24.77315112 15.8905341 -25.08203125 13.7734375 C-25.25968018 12.56091309 -25.4373291 11.34838867 -25.62036133 10.09912109 C-26 7 -26 7 -26 3 C-22.60500696 2.49418146 -19.20888518 1.99637756 -15.8125 1.5 C-14.85279297 1.35691406 -13.89308594 1.21382812 -12.90429688 1.06640625 C-11.97294922 0.93105469 -11.04160156 0.79570313 -10.08203125 0.65625 C-9.22843018 0.53056641 -8.3748291 0.40488281 -7.49536133 0.27539062 C-4.97530325 -0.00272556 -2.53314218 -0.047608 0 0 Z " fill="#595959" transform="translate(273,57)"/>
<path d="M0 0 C6.46989806 -0.20527291 12.44562878 0.58473278 18.8125 1.6875 C29.87518533 3.53482471 40.95777153 5.17863618 52.0625 6.75 C52.85604889 6.86250092 53.64959778 6.97500183 54.4671936 7.09091187 C58.97772982 7.73012911 63.48866876 8.36641902 68 9 C68 10.65 68 12.3 68 14 C69.65 14 71.3 14 73 14 C73.3197811 21.01741854 72.24087339 27.6498109 71.0920105 34.56317139 C70.50064803 38.1282317 69.93134933 41.6967893 69.36328125 45.265625 C69.18878197 46.36026566 69.18878197 46.36026566 69.01075745 47.47702026 C67.86053934 54.76044109 66.88449799 62.06233706 65.9375 69.375 C64.29232308 82.03903627 62.40152887 94.65291145 60.42285156 107.26855469 C59.56065922 112.83795883 58.77732607 118.41819659 58 124 C43.23977292 122.48411059 28.5641659 120.46051187 13.875 118.375 C11.54821104 118.0466343 9.22138832 117.71850774 6.89453125 117.390625 C1.26262956 116.59649998 -4.36885168 115.7994488 -10 115 C-10 113.35 -10 111.7 -10 110 C-11.65 110 -13.3 110 -15 110 C-15.31083064 104.30143835 -14.73973024 99.08732744 -13.671875 93.49609375 C-11.95700583 84.14876514 -10.6808071 74.75881702 -9.43762207 65.33895874 C-7.43633417 50.19302567 -5.30445874 35.08923036 -2.8125 20.015625 C-1.71661706 13.3642244 -0.82670893 6.68981572 0 0 Z " fill="#5A5A5A" transform="translate(455,58)"/>
<path d="M0 0 C9.24 0 18.48 0 28 0 C28 1.65 28 3.3 28 5 C29.98 5 31.96 5 34 5 C33.67 7.64 33.34 10.28 33 13 C33.99128906 13.11214844 34.98257813 13.22429687 36.00390625 13.33984375 C40.16870118 13.94078656 43.9839706 15.1486428 47.9375 16.5625 C48.66316162 16.81918457 49.38882324 17.07586914 50.13647461 17.34033203 C58.07903383 20.24646001 65.53822785 24.04315178 73 28 C73 28.99 73 29.98 73 31 C74.98 31.66 76.96 32.32 79 33 C77.40376856 37.39383706 75.21975667 41.28995807 72.875 45.3125 C72.50246094 45.95767578 72.12992187 46.60285156 71.74609375 47.26757812 C70.83367787 48.84675945 69.91724491 50.42361864 69 52 C64.38101796 51.39944402 60.730754 49.41842975 56.6875 47.25 C48.6887866 43.10906496 40.66384288 40.38322875 32 38 C30.84628906 37.65710938 29.69257813 37.31421875 28.50390625 36.9609375 C21.64426148 34.92528594 21.64426148 34.92528594 15 37 C14.01 37.66 13.02 38.32 12 39 C17.28 39.33 22.56 39.66 28 40 C28 41.65 28 43.3 28 45 C29.98 45 31.96 45 34 45 C34 47.97 34 50.94 34 54 C46.54 54 59.08 54 72 54 C72 55.32 72 56.64 72 58 C74.31 58 76.62 58 79 58 C79 64.93 79 71.86 79 79 C66.6714405 79.13184875 54.34286974 79.26249498 42.0142765 79.39115143 C36.28669076 79.45096771 30.55911103 79.51126605 24.83154297 79.57275391 C-23.87760064 80.09501517 -23.87760064 80.09501517 -45 80 C-45 78.35 -45 76.7 -45 75 C-46.98 75 -48.96 75 -51 75 C-51 68.07 -51 61.14 -51 54 C-45.72 54 -40.44 54 -35 54 C-35.66 52.68 -36.32 51.36 -37 50 C-37.99 49.67 -38.98 49.34 -40 49 C-44.05840063 43.41969914 -45.85309397 36.47757484 -48 30 C-47.2886792 29.79842285 -46.5773584 29.5968457 -45.84448242 29.38916016 C-42.62391409 28.47320664 -39.40570995 27.54920388 -36.1875 26.625 C-35.06794922 26.30789062 -33.94839844 25.99078125 -32.79492188 25.6640625 C-31.72177734 25.3546875 -30.64863281 25.0453125 -29.54296875 24.7265625 C-28.55321045 24.44377441 -27.56345215 24.16098633 -26.54370117 23.86962891 C-23.80417893 23.05413341 -23.80417893 23.05413341 -21 21 C-19.68 21 -18.36 21 -17 21 C-17 20.34 -17 19.68 -17 19 C-14.98828125 17.703125 -14.98828125 17.703125 -12.3125 16.25 C-4.75511301 11.83528879 -2.50211632 8.75740713 0 0 Z " fill="#FECC4B" transform="translate(352,54)"/>
<path d="M0 0 C1.36451294 0.00918457 1.36451294 0.00918457 2.7565918 0.01855469 C14.14916847 0.27592457 25.16809262 2.18616538 35.30102539 7.50976562 C37.61225158 8.68533242 39.9749516 9.50824625 42.4375 10.3125 C49.4806189 12.78790581 55.92139385 16.30176256 62.125 20.4375 C62.125 21.0975 62.125 21.7575 62.125 22.4375 C62.85589844 22.68242188 63.58679688 22.92734375 64.33984375 23.1796875 C70.8231575 26.10763565 76.68985017 32.67739786 79.5390625 39.19921875 C81.08731722 45.11355178 80.9254898 51.12029267 78.9375 56.875 C74.54827595 63.08045469 69.60622739 66.83993702 62.125 68.4375 C38.59482745 70.96810346 9.17704865 62.63800466 -9.875 48.4375 C-12.99537014 45.88768298 -15.9604902 43.21900637 -18.875 40.4375 C-20.2671875 39.138125 -20.2671875 39.138125 -21.6875 37.8125 C-27.01934775 32.02363673 -29.29449952 27.44407419 -29.1484375 19.5859375 C-28.34136342 13.24464117 -24.75050391 8.82500214 -20.046875 4.76171875 C-13.49034429 0.76412179 -7.51992399 -0.08695986 0 0 Z " fill="#5A5A5A" transform="translate(636.875,89.5625)"/>
<path d="M0 0 C5.06211138 0.81028156 9.811657 2.51541215 14.65551758 4.14282227 C15.6218512 4.46483612 16.58818481 4.78684998 17.58380127 5.11862183 C20.77166786 6.18170777 23.95809721 7.24903494 27.14453125 8.31640625 C29.35690219 9.05510684 31.5693617 9.79354223 33.78190613 10.53172302 C39.60081276 12.47390216 45.41850908 14.41968225 51.23596191 16.36621094 C57.17416023 18.3524338 63.11349443 20.33525387 69.05273438 22.31835938 C80.70293806 26.20890732 92.35186615 30.10325982 104 34 C104 35.32 104 36.64 104 38 C105.65 38.33 107.3 38.66 109 39 C107.49744355 46.67407361 105.19767207 54.0309738 102.74145508 61.44140625 C102.05598295 63.5197597 101.38834049 65.60335911 100.72070312 67.6875 C100.28493362 69.01077263 99.84812309 70.333703 99.41015625 71.65625 C99.01965088 72.85056641 98.62914551 74.04488281 98.22680664 75.27539062 C97.61953735 76.62407227 97.61953735 76.62407227 97 78 C93.64261311 79.11912896 92.99107086 78.91213081 89.766922 77.82948303 C88.90455429 77.54477646 88.04218658 77.26006989 87.15368652 76.96673584 C85.73920227 76.48445526 85.73920227 76.48445526 84.29614258 75.99243164 C83.3008403 75.66095627 82.30553802 75.3294809 81.28007507 74.98796082 C77.98197922 73.88719915 74.68831885 72.77373648 71.39453125 71.66015625 C69.11221592 70.89565544 66.82963483 70.13194759 64.54679871 69.3690033 C58.53207601 67.35645062 52.52103452 65.33311405 46.51068115 63.30755615 C40.37973877 61.24346918 34.24539703 59.18953841 28.11132812 57.13476562 C16.07085946 53.09981068 4.03413426 49.05380553 -8 45 C-7.67 43.68 -7.34 42.36 -7 41 C-8.65 40.67 -10.3 40.34 -12 40 C-11.4050829 34.79373547 -10.19937085 30.05813798 -8.49609375 25.09765625 C-8.2533522 24.3750914 -8.01061066 23.65252655 -7.76051331 22.9080658 C-6.99184073 20.62425181 -6.2148266 18.34338111 -5.4375 16.0625 C-4.91155318 14.50474497 -4.3861571 12.94680388 -3.86132812 11.38867188 C-2.58057492 7.59026747 -1.2923382 3.79447765 0 0 Z " fill="#5A5A5A" transform="translate(590,156)"/>
<path d="M0 0 C0 0.99 0 1.98 0 3 C1.65 3 3.3 3 5 3 C6.41927532 7.2282956 7.83492383 11.45779741 9.25 15.6875 C9.64574219 16.86634766 10.04148437 18.04519531 10.44921875 19.25976562 C12.76527009 26.18893561 14.9915261 33.13720515 17.12011719 40.1262207 C17.84143139 42.48210013 18.58112894 44.82915765 19.34375 47.171875 C22.41617207 56.67977574 24.83926427 66.24651134 27 76 C23.5866479 77.17652472 20.16882405 78.33948174 16.75 79.5 C15.78191406 79.83386719 14.81382812 80.16773438 13.81640625 80.51171875 C12.88183594 80.82753906 11.94726562 81.14335937 10.984375 81.46875 C10.12553711 81.76201172 9.26669922 82.05527344 8.38183594 82.35742188 C6 83 6 83 2 83 C1.67 81.68 1.34 80.36 1 79 C0.3805249 78.92845703 -0.2389502 78.85691406 -0.87719727 78.78320312 C-3 78 -3 78 -4.10913086 76.04492188 C-4.39151611 75.19478516 -4.67390137 74.34464844 -4.96484375 73.46875 C-5.44920898 72.04598755 -5.44920898 72.04598755 -5.94335938 70.59448242 C-6.27142578 69.57330322 -6.59949219 68.55212402 -6.9375 67.5 C-7.28232422 66.46657471 -7.62714844 65.43314941 -7.98242188 64.3684082 C-16 40.11148784 -16 40.11148784 -16 36 C-22.56398253 38.12043796 -29.12622364 40.24620359 -35.6875 42.375 C-36.66018829 42.69035706 -37.63287659 43.00571411 -38.63504028 43.33062744 C-48.505585 46.53365391 -58.37157516 49.74325082 -68.171875 53.15625 C-68.84930252 53.39211823 -69.52673004 53.62798645 -70.22468567 53.8710022 C-73.32597513 54.95412903 -76.42291765 56.04845096 -79.51635742 57.15380859 C-81.13054565 57.72349365 -81.13054565 57.72349365 -82.77734375 58.3046875 C-83.69765381 58.63452637 -84.61796387 58.96436523 -85.56616211 59.30419922 C-88 60 -88 60 -92 60 C-92.495 58.515 -92.495 58.515 -93 57 C-93.64098633 56.86319824 -94.28197266 56.72639648 -94.94238281 56.58544922 C-97 56 -97 56 -98.09667969 54.09814453 C-98.36899414 53.28458496 -98.64130859 52.47102539 -98.921875 51.6328125 C-99.22480469 50.74722656 -99.52773437 49.86164063 -99.83984375 48.94921875 C-100.14019531 48.01722656 -100.44054687 47.08523437 -100.75 46.125 C-101.06582031 45.20074219 -101.38164063 44.27648437 -101.70703125 43.32421875 C-104 36.48501759 -104 36.48501759 -104 33 C-90.84050466 28.37295842 -77.66883411 23.78145314 -64.48962402 19.21087646 C-61.47513095 18.1648673 -58.46120795 17.11723244 -55.44743729 16.06914425 C-49.06565884 13.85031113 -42.68044116 11.64178987 -36.28996658 9.44811916 C-33.14508059 8.36836699 -30.00220893 7.28328677 -26.86181641 6.19052124 C-23.32056475 4.95927486 -19.7743583 3.74348821 -16.2265625 2.53125 C-15.16378082 2.1580513 -14.10099915 1.7848526 -13.00601196 1.40034485 C-12.02256805 1.06778183 -11.03912415 0.73521881 -10.02587891 0.39257812 C-9.17184479 0.09806763 -8.31781067 -0.19644287 -7.43789673 -0.49987793 C-4.64835698 -1.07213777 -2.72904122 -0.7329057 0 0 Z " fill="#5A5A5A" transform="translate(125,86)"/>
<path d="M0 0 C2.32923323 10.23916742 4.35127509 20.4730304 5.8125 30.875 C6.01613159 32.27322998 6.01613159 32.27322998 6.22387695 33.69970703 C6.40116333 35.02010986 6.40116333 35.02010986 6.58203125 36.3671875 C6.68749268 37.14175293 6.7929541 37.91631836 6.90161133 38.71435547 C7.0125612 41.29180635 6.59553632 43.49791841 6 46 C5.44402634 46.08468033 4.88805267 46.16936066 4.31523132 46.25660706 C-2.8945191 47.35526661 -10.10360413 48.45824842 -17.3125 49.5625 C-19.05882217 49.82969849 -19.05882217 49.82969849 -20.84042358 50.10229492 C-33.49692603 52.04086916 -46.14835189 54.00236187 -58.78125 56.08984375 C-60.26300972 56.33426964 -60.26300972 56.33426964 -61.77470398 56.58363342 C-66.42784561 57.35272422 -71.07956613 58.12940763 -75.72973633 58.91625977 C-77.399229 59.1943071 -79.06874276 59.47222788 -80.73828125 59.75 C-81.47771973 59.877733 -82.2171582 60.005466 -82.97900391 60.1370697 C-87.39997718 60.86674957 -91.54017589 61.11677798 -96 61 C-97.00350058 55.41440596 -98.0002041 49.82765693 -98.99072266 44.23974609 C-99.32838987 42.34032756 -99.66788802 40.44123355 -100.00927734 38.54248047 C-100.50063046 35.8078067 -100.9853128 33.07202032 -101.46875 30.3359375 C-101.62186646 29.49195404 -101.77498291 28.64797058 -101.93273926 27.77841187 C-102.14295715 26.57784653 -102.14295715 26.57784653 -102.35742188 25.35302734 C-102.48177612 24.65575531 -102.60613037 23.95848328 -102.73425293 23.24008179 C-103.061495 20.48163555 -103.04085437 17.77502407 -103 15 C-102.17632935 14.87107361 -101.35265869 14.74214722 -100.50402832 14.60931396 C-92.62346513 13.37557877 -84.74308468 12.14068359 -76.86289215 10.90458298 C-72.81461419 10.26960233 -68.76627427 9.63502314 -64.71777344 9.00146484 C-60.80335402 8.38885962 -56.88910172 7.77519715 -52.97497559 7.16072083 C-51.42855426 6.91806212 -49.88208607 6.67570191 -48.33557129 6.43363953 C-40.77556106 5.24974833 -33.22013765 4.05192073 -25.6796875 2.74804688 C-24.58507202 2.55946106 -23.49045654 2.37087524 -22.3626709 2.17657471 C-20.39603716 1.83451927 -18.43048187 1.48616293 -16.46643066 1.12957764 C-10.89092917 0.1579097 -5.66132318 -0.15049087 0 0 Z " fill="#5A5A5A" transform="translate(289,135)"/>
<path d="M0 0 C6.97393967 0.49241064 13.89853189 1.01492907 20.8125 2.0625 C22.58560547 2.32740234 22.58560547 2.32740234 24.39453125 2.59765625 C25.25433594 2.73042969 26.11414063 2.86320312 27 3 C27 4.65 27 6.3 27 8 C28.98 8 30.96 8 33 8 C31.78589786 20.75521421 30.12247502 33.36419872 28 46 C31.63 46 35.26 46 39 46 C39 47.32 39 48.64 39 50 C40.98 50 42.96 50 45 50 C45.48826849 58.9515889 43.65840528 67.22427207 42 76 C35.73 76 29.46 76 23 76 C22.896875 77.711875 22.79375 79.42375 22.6875 81.1875 C21.49850192 96.57748917 18.80273098 111.83344866 16 127 C6.91076799 126.4262611 -2.00200434 125.38949558 -11 124 C-11 122.35 -11 120.7 -11 119 C-12.98 119 -14.96 119 -17 119 C-16.448686 109.868684 -15.30908654 100.95781407 -13.8125 91.9375 C-11.64831312 78.61174961 -9.78344629 65.25652601 -8 51.875 C-5.68241658 34.51642933 -3.05172233 17.24530336 0 0 Z " fill="#5A5A5A" transform="translate(537,67)"/>
<path d="M0 0 C0.495 2.475 0.495 2.475 1 5 C2.65 5.33 4.3 5.66 6 6 C8.31 12.93 10.62 19.86 13 27 C-8.85668655 34.84307549 -30.81668681 42.37065112 -52.8125 49.8125 C-53.48205971 50.03910183 -54.15161942 50.26570366 -54.84146881 50.49917221 C-71.21412808 56.04003621 -87.59603503 61.55241885 -104 67 C-104.2475 66.195625 -104.495 65.39125 -104.75 64.5625 C-105.1625 63.716875 -105.575 62.87125 -106 62 C-107.32751377 61.64419657 -108.66115674 61.31046353 -110 61 C-111.09667969 59.08227539 -111.09667969 59.08227539 -111.921875 56.59765625 C-112.22480469 55.70755859 -112.52773437 54.81746094 -112.83984375 53.90039062 C-113.14019531 52.96388672 -113.44054687 52.02738281 -113.75 51.0625 C-114.06582031 50.12986328 -114.38164063 49.19722656 -114.70703125 48.23632812 C-117 41.37231128 -117 41.37231128 -117 39 C-115.97145653 38.65199844 -115.97145653 38.65199844 -114.9221344 38.29696655 C-74.38391818 24.58609507 -74.38391818 24.58609507 -33.86813354 10.80914307 C-32.18428052 10.23483584 -30.50030317 9.66089296 -28.81619263 9.08734131 C-26.49815 8.29769035 -24.18056282 7.50672507 -21.86328125 6.71484375 C-21.16658829 6.47701172 -20.46989532 6.23917969 -19.75209045 5.99414062 C-14.83089367 4.30606675 -9.94933221 2.52608649 -5.09057617 0.66625977 C-3 0 -3 0 0 0 Z " fill="#5A5A5A" transform="translate(161,171)"/>
<path d="M0 0 C0 1.32 0 2.64 0 4 C1.98 4 3.96 4 6 4 C6 17.2 6 30.4 6 44 C-2.91 44 -11.82 44 -21 44 C-21 42.35 -21 40.7 -21 39 C-22.65 39 -24.3 39 -26 39 C-26 34.71 -26 30.42 -26 26 C-52.07 26 -78.14 26 -105 26 C-105 24.35 -105 22.7 -105 21 C-106.65 21 -108.3 21 -110 21 C-110 14.4 -110 7.8 -110 1 C-73.32456765 0.18499039 -36.68385072 -0.14004864 0 0 Z " fill="#FECC4A" transform="translate(418,135)"/>
<path d="M0 0 C9.24 0 18.48 0 28 0 C28 2.97 28 5.94 28 9 C40.54 9 53.08 9 66 9 C66 10.32 66 11.64 66 13 C68.31 13 70.62 13 73 13 C73 19.93 73 26.86 73 34 C60.6714405 34.13184875 48.34286974 34.26249498 36.0142765 34.39115143 C30.28669076 34.45096771 24.55911103 34.51126605 18.83154297 34.57275391 C-27.86980554 35.07348751 -27.86980554 35.07348751 -51 35 C-51 28.07 -51 21.14 -51 14 C-34.17 14 -17.34 14 0 14 C0 9.38 0 4.76 0 0 Z " fill="#FECD4C" transform="translate(358,99)"/>
<path d="M0 0 C0 1.65 0 3.3 0 5 C1.65 5 3.3 5 5 5 C7.52078164 19.33733458 10.00516202 33.67898711 12.25 48.0625 C12.41274414 49.08778809 12.57548828 50.11307617 12.74316406 51.16943359 C13.80850761 58.09642855 14.50164744 65.00990893 15 72 C14.01 72.495 14.01 72.495 13 73 C12.34786708 75.02463255 12.34786708 75.02463255 12 77 C13.65 77 15.3 77 17 77 C16.505 78.98 16.505 78.98 16 81 C16 80.01 16 79.02 16 78 C-5.31137417 80.81679172 -26.50754211 84.32459486 -47.71508789 87.82592773 C-48.88637238 88.01923172 -50.05765686 88.21253571 -51.26443481 88.41169739 C-53.46214577 88.77477213 -55.65972777 89.13862885 -57.85714722 89.50346375 C-60.90391574 90.0076456 -63.9518746 90.50409511 -67 91 C-68.68828415 91.28239532 -68.68828415 91.28239532 -70.41067505 91.57049561 C-76.00471172 92.47945983 -81.33030019 93.26370697 -87 93 C-86.81824219 94.02883301 -86.63648438 95.05766602 -86.44921875 96.11767578 C-85.77318195 99.95223497 -85.10386536 103.78794233 -84.43652344 107.62402344 C-84.14732716 109.28091754 -83.85633421 110.93749913 -83.56347656 112.59375 C-83.14169759 114.9809616 -82.72649377 117.36924003 -82.3125 119.7578125 C-82.11563599 120.85973434 -82.11563599 120.85973434 -81.91479492 121.98391724 C-81.21942725 126.03760526 -80.86425925 129.88818639 -81 134 C-82.65 134 -84.3 134 -86 134 C-87.71267146 124.03225208 -89.32381077 114.07668168 -90.5703125 104.0390625 C-90.90961387 101.16897545 -90.90961387 101.16897545 -91.52294922 99.10693359 C-92.05516731 96.75634909 -92.09789664 94.65697171 -92.0625 92.25 C-92.05347656 91.45078125 -92.04445312 90.6515625 -92.03515625 89.828125 C-92.02355469 89.22484375 -92.01195312 88.6215625 -92 88 C-83.35947613 86.57655575 -74.71798881 85.15914833 -66.07526112 83.74914646 C-62.06084265 83.09403335 -58.04676816 82.43695305 -54.03344727 81.77514648 C-50.15033779 81.13489033 -46.26636827 80.50010268 -42.38178062 79.86887932 C-40.91014327 79.62880416 -39.43880966 79.3868583 -37.96781349 79.14288521 C-28.99638924 77.65643042 -20.08505552 76.52176141 -11 76 C-11 74.35 -11 72.7 -11 71 C-12.65 71 -14.3 71 -16 71 C-18.77463572 54.81611192 -21.4123743 38.61873524 -23.8125 22.375 C-23.97859268 21.26055511 -23.97859268 21.26055511 -24.14804077 20.12359619 C-24.46270503 18.00735069 -24.77315112 15.8905341 -25.08203125 13.7734375 C-25.25968018 12.56091309 -25.4373291 11.34838867 -25.62036133 10.09912109 C-26 7 -26 7 -26 3 C-22.60500696 2.49418146 -19.20888518 1.99637756 -15.8125 1.5 C-14.85279297 1.35691406 -13.89308594 1.21382812 -12.90429688 1.06640625 C-11.97294922 0.93105469 -11.04160156 0.79570313 -10.08203125 0.65625 C-9.22843018 0.53056641 -8.3748291 0.40488281 -7.49536133 0.27539062 C-4.97530325 -0.00272556 -2.53314218 -0.047608 0 0 Z " fill="#5A5A5A" transform="translate(273,57)"/>
<path d="M0 0 C3.32033203 0.61332483 6.46571392 1.40541819 9.66772461 2.47349548 C10.57610077 2.77488937 11.48447693 3.07628326 12.42037964 3.3868103 C13.4044278 3.71669952 14.38847595 4.04658875 15.40234375 4.38647461 C16.44842804 4.73453659 17.49451233 5.08259857 18.57229614 5.44120789 C22.02834808 6.59199079 25.48294134 7.74708663 28.9375 8.90234375 C31.33968941 9.70347097 33.74195282 10.50437631 36.14428711 11.30506897 C41.17851925 12.98366773 46.21209722 14.66420718 51.24511719 16.34643555 C57.05695172 18.28895431 62.86982484 20.22833747 68.68330669 22.1659202 C74.2842426 24.03269507 79.88459331 25.90121981 85.48464966 27.77063179 C87.86398332 28.56480383 90.24343833 29.35861238 92.62301636 30.15205193 C95.94840243 31.26123666 99.27312236 32.37239492 102.59765625 33.48413086 C103.58170441 33.81199585 104.56575256 34.13986084 105.57962036 34.47766113 C106.48799652 34.78187485 107.39637268 35.08608856 108.33227539 35.39952087 C109.51026451 35.79302184 109.51026451 35.79302184 110.71205139 36.19447231 C113.17184579 37.06050247 115.5852896 38.01589489 118 39 C118 39.99 118 40.98 118 42 C119.65 42.33 121.3 42.66 123 43 C122.23915412 47.18865681 121.12177302 51.22484795 119.9375 55.3125 C119.57527344 56.56675781 119.21304688 57.82101563 118.83984375 59.11328125 C118.42412109 60.54220703 118.42412109 60.54220703 118 62 C111.19074167 60.60331418 104.69020609 58.71871519 98.09594727 56.53173828 C97.04445999 56.18674286 95.99297272 55.84174744 94.90962219 55.48629761 C91.46019491 54.35268862 88.0131085 53.21217826 84.56640625 52.0703125 C82.79525609 51.48479425 82.79525609 51.48479425 80.98832512 50.88744736 C75.39349352 49.03765666 69.79977903 47.18455962 64.2078653 45.325966 C57.76480788 43.1845481 51.31766044 41.056076 44.86675221 38.938429 C39.26518049 37.09861457 33.66913282 35.24239652 28.07496452 33.38018417 C25.69749367 32.59134298 23.31834338 31.80754524 20.93753242 31.02884293 C17.61960234 29.94225198 14.30843412 28.83709862 10.99829102 27.72705078 C10.00974121 27.40794739 9.02119141 27.08884399 8.00268555 26.7600708 C7.10421402 26.45455292 6.20574249 26.14903503 5.28004456 25.83425903 C4.49714837 25.57506746 3.71425219 25.31587589 2.90763187 25.04883003 C0.51641978 23.73412404 0.07985848 22.45031879 -1 20 C-3.0335948 18.73195434 -3.0335948 18.73195434 -5 18 C-4.42934122 11.58008874 -2.32655091 5.98410537 0 0 Z " fill="#5B5B5B" transform="translate(591,131)"/>
<path d="M0 0 C6.46989806 -0.20527291 12.44562878 0.58473278 18.8125 1.6875 C29.87518533 3.53482471 40.95777153 5.17863618 52.0625 6.75 C52.85604889 6.86250092 53.64959778 6.97500183 54.4671936 7.09091187 C58.97772982 7.73012911 63.48866876 8.36641902 68 9 C68 10.32 68 11.64 68 13 C54.91674127 12.4408739 42.05882843 10.37633448 29.125 8.4375 C26.87637281 8.10434002 24.62767535 7.77165394 22.37890625 7.43945312 C16.91844885 6.63176293 11.45888738 5.81823058 6 5 C5.91044037 5.75413681 5.82088074 6.50827362 5.72860718 7.28526306 C1.64724147 41.63284972 1.64724147 41.63284972 -0.33203125 52.24609375 C-2.53906696 64.45488547 -4.06393134 76.76567355 -5.6875 89.0625 C-6.01073882 91.49027819 -6.3343042 93.91801292 -6.65820312 96.34570312 C-7.44256228 102.22997378 -8.22290894 108.11476533 -9 114 C-8.01 114.33 -7.02 114.66 -6 115 C-7.32 115 -8.64 115 -10 115 C-10 113.35 -10 111.7 -10 110 C-11.65 110 -13.3 110 -15 110 C-15.31083064 104.30143835 -14.73973024 99.08732744 -13.671875 93.49609375 C-11.95700583 84.14876514 -10.6808071 74.75881702 -9.43762207 65.33895874 C-7.43633417 50.19302567 -5.30445874 35.08923036 -2.8125 20.015625 C-1.71661706 13.3642244 -0.82670893 6.68981572 0 0 Z " fill="#9C9C9C" transform="translate(455,58)"/>
<path d="M0 0 C6.97393967 0.49241064 13.89853189 1.01492907 20.8125 2.0625 C22.58560547 2.32740234 22.58560547 2.32740234 24.39453125 2.59765625 C25.25433594 2.73042969 26.11414063 2.86320312 27 3 C27 4.65 27 6.3 27 8 C19.74 7.01 12.48 6.02 5 5 C5 8.3 5 11.6 5 15 C4.623706 17.66626119 4.17567887 20.32350578 3.65234375 22.96484375 C2.50712064 29.00302787 1.5308984 35.0321426 0.75390625 41.12890625 C0.65632523 41.89353683 0.5587442 42.65816742 0.45820618 43.44596863 C0.25966961 45.01394846 0.06217495 46.58206056 -0.13430786 48.15029907 C-1.94030149 62.51880982 -4.00509009 76.80597798 -6.49853516 91.07275391 C-7.46378758 96.70730921 -8.35261123 102.35431137 -9.25 108 C-9.42539307 109.10061768 -9.60078613 110.20123535 -9.78149414 111.33520508 C-10.18838542 113.8900227 -10.5945811 116.44494839 -11 119 C-12.98 119 -14.96 119 -17 119 C-16.448686 109.868684 -15.30908654 100.95781407 -13.8125 91.9375 C-11.64831312 78.61174961 -9.78344629 65.25652601 -8 51.875 C-5.68241658 34.51642933 -3.05172233 17.24530336 0 0 Z " fill="#9E9E9E" transform="translate(537,67)"/>
<path d="M0 0 C0.99 2.97 0.99 2.97 2 6 C1.20155167 6.26958527 0.40310333 6.53917053 -0.41954041 6.81692505 C-10.59255155 10.25189058 -20.76518367 13.68797738 -30.9375 17.125 C-31.74568806 17.39806976 -32.55387611 17.67113953 -33.38655472 17.95248413 C-58.94078208 26.58716323 -84.48495025 35.25009312 -110 44 C-108.51125269 50.79847903 -108.51125269 50.79847903 -106.875 57.5625 C-106.58625 58.696875 -106.2975 59.83125 -106 61 C-107.32 61 -108.64 61 -110 61 C-111.17171756 57.71010914 -112.33651088 54.41780898 -113.5 51.125 C-113.83386719 50.18785156 -114.16773438 49.25070313 -114.51171875 48.28515625 C-114.98544922 46.94130859 -114.98544922 46.94130859 -115.46875 45.5703125 C-115.76201172 44.74289551 -116.05527344 43.91547852 -116.35742188 43.06298828 C-117 41 -117 41 -117 39 C-115.97145653 38.65199844 -115.97145653 38.65199844 -114.9221344 38.29696655 C-74.38391818 24.58609507 -74.38391818 24.58609507 -33.86813354 10.80914307 C-32.18428052 10.23483584 -30.50030317 9.66089296 -28.81619263 9.08734131 C-26.49815 8.29769035 -24.18056282 7.50672507 -21.86328125 6.71484375 C-21.16658829 6.47701172 -20.46989532 6.23917969 -19.75209045 5.99414062 C-14.83089367 4.30606675 -9.94933221 2.52608649 -5.09057617 0.66625977 C-3 0 -3 0 0 0 Z " fill="#9C9C9C" transform="translate(161,171)"/>
<path d="M0 0 C-0.33 1.32 -0.66 2.64 -1 4 C0.65 4 2.3 4 4 4 C3.67 5.32 3.34 6.64 3 8 C3 7.01 3 6.02 3 5 C-18.31137417 7.81679172 -39.50754211 11.32459486 -60.71508789 14.82592773 C-61.88637238 15.01923172 -63.05765686 15.21253571 -64.26443481 15.41169739 C-66.46214577 15.77477213 -68.65972777 16.13862885 -70.85714722 16.50346375 C-73.90391574 17.0076456 -76.9518746 17.50409511 -80 18 C-81.68828415 18.28239532 -81.68828415 18.28239532 -83.41067505 18.57049561 C-89.00471172 19.47945983 -94.33030019 20.26370697 -100 20 C-99.72736328 21.54324951 -99.72736328 21.54324951 -99.44921875 23.11767578 C-98.77318195 26.95223497 -98.10386536 30.78794233 -97.43652344 34.62402344 C-97.14732716 36.28091754 -96.85633421 37.93749913 -96.56347656 39.59375 C-96.14169759 41.9809616 -95.72649377 44.36924003 -95.3125 46.7578125 C-95.18125732 47.49242706 -95.05001465 48.22704163 -94.91479492 48.98391724 C-94.21942725 53.03760526 -93.86425925 56.88818639 -94 61 C-95.65 61 -97.3 61 -99 61 C-100.71267146 51.03225208 -102.32381077 41.07668168 -103.5703125 31.0390625 C-103.90961387 28.16897545 -103.90961387 28.16897545 -104.52294922 26.10693359 C-105.05516731 23.75634909 -105.09789664 21.65697171 -105.0625 19.25 C-105.05347656 18.45078125 -105.04445312 17.6515625 -105.03515625 16.828125 C-105.02355469 16.22484375 -105.01195312 15.6215625 -105 15 C-96.35947613 13.57655575 -87.71798881 12.15914833 -79.07526112 10.74914646 C-75.06084265 10.09403335 -71.04676816 9.43695305 -67.03344727 8.77514648 C-63.15033779 8.13489033 -59.26636827 7.50010268 -55.38178062 6.86887932 C-53.91014327 6.62880416 -52.43880966 6.3868583 -50.96781349 6.14288521 C-41.99638924 4.65643042 -33.08505552 3.52176141 -24 3 C-23.67 2.01 -23.34 1.02 -23 0 C-22.505 0.99 -22.505 0.99 -22 2 C-21.10692139 1.85582642 -21.10692139 1.85582642 -20.19580078 1.70874023 C-17.50654267 1.27838542 -14.81584247 0.85782942 -12.125 0.4375 C-10.71927734 0.21030273 -10.71927734 0.21030273 -9.28515625 -0.02148438 C-8.38925781 -0.16005859 -7.49335938 -0.29863281 -6.5703125 -0.44140625 C-5.74289551 -0.57232666 -4.91547852 -0.70324707 -4.06298828 -0.83813477 C-2 -1 -2 -1 0 0 Z " fill="#9C9C9C" transform="translate(286,130)"/>
<path d="M0 0 C3.96 0.33 7.92 0.66 12 1 C12.05451714 3.04136395 12.09302485 5.08315856 12.125 7.125 C12.14820313 8.26195313 12.17140625 9.39890625 12.1953125 10.5703125 C11.99405183 14.10444988 11.12026097 16.6600398 10 20 C9.54374279 22.98767785 9.30899092 25.98865308 9.0625 29 C8.06549687 40.05237292 6.56618023 51.01585602 5 62 C0.71 61.67 -3.58 61.34 -8 61 C-7.63743766 47.82085887 -5.72790609 35.06405671 -3.51855469 22.07958984 C-2.7257489 17.37127902 -1.98721597 12.65477767 -1.25 7.9375 C-1.00537553 6.38408824 -0.76060242 4.83069988 -0.515625 3.27734375 C-0.34546875 2.19582031 -0.1753125 1.11429687 0 0 Z " fill="#F9F9F9" transform="translate(482,89)"/>
<path d="M0 0 C0 0.99 0 1.98 0 3 C0.99 3.33 1.98 3.66 3 4 C2.18700439 4.26925293 1.37400879 4.53850586 0.53637695 4.81591797 C-20.02331352 11.63189462 -40.55140951 18.53914196 -61.0625 25.5 C-62.79782486 26.08826569 -62.79782486 26.08826569 -64.56820679 26.68841553 C-67.91181539 27.82218099 -71.25482993 28.95768037 -74.59765625 30.09375 C-75.58607513 30.42879547 -76.57449402 30.76384094 -77.59286499 31.10903931 C-83.36294433 33.07297241 -89.09295636 35.11967628 -94.79930115 37.2623291 C-97 38 -97 38 -99 38 C-98.566875 39.13179687 -98.13375 40.26359375 -97.6875 41.4296875 C-97.12482714 42.9113927 -96.56233657 44.39316714 -96 45.875 C-95.71382812 46.62136719 -95.42765625 47.36773437 -95.1328125 48.13671875 C-93 53.7734375 -93 53.7734375 -93 56 C-94.32 56 -95.64 56 -97 56 C-98.17430074 52.7318568 -99.33811256 49.46007485 -100.5 46.1875 C-100.83386719 45.25873047 -101.16773438 44.32996094 -101.51171875 43.37304688 C-101.82753906 42.48037109 -102.14335938 41.58769531 -102.46875 40.66796875 C-102.76201172 39.84578857 -103.05527344 39.0236084 -103.35742188 38.17651367 C-104 36 -104 36 -104 33 C-90.84050466 28.37295842 -77.66883411 23.78145314 -64.48962402 19.21087646 C-61.47513095 18.1648673 -58.46120795 17.11723244 -55.44743729 16.06914425 C-49.06565884 13.85031113 -42.68044116 11.64178987 -36.28996658 9.44811916 C-33.14508059 8.36836699 -30.00220893 7.28328677 -26.86181641 6.19052124 C-23.32056475 4.95927486 -19.7743583 3.74348821 -16.2265625 2.53125 C-15.16378082 2.1580513 -14.10099915 1.7848526 -13.00601196 1.40034485 C-12.02256805 1.06778183 -11.03912415 0.73521881 -10.02587891 0.39257812 C-9.17184479 0.09806763 -8.31781067 -0.19644287 -7.43789673 -0.49987793 C-4.64835698 -1.07213777 -2.72904122 -0.7329057 0 0 Z " fill="#9C9C9C" transform="translate(125,86)"/>
<path d="M0 0 C9.24 0 18.48 0 28 0 C28 1.65 28 3.3 28 5 C20.74 5 13.48 5 6 5 C5.67 6.98 5.34 8.96 5 11 C-2.9825927 24.42983363 -20.01457862 29.37289295 -34.20703125 33.16796875 C-37.32404735 33.85172202 -39.84062105 34.19746118 -43 34 C-42.566875 34.91523437 -42.13375 35.83046875 -41.6875 36.7734375 C-40.8521875 38.55621094 -40.8521875 38.55621094 -40 40.375 C-39.443125 41.55835938 -38.88625 42.74171875 -38.3125 43.9609375 C-37 47 -37 47 -37 49 C-37.99 49 -38.98 49 -40 49 C-44.10974683 43.52033756 -45.87114092 36.42312419 -48 30 C-47.2886792 29.79842285 -46.5773584 29.5968457 -45.84448242 29.38916016 C-42.62391409 28.47320664 -39.40570995 27.54920388 -36.1875 26.625 C-35.06794922 26.30789062 -33.94839844 25.99078125 -32.79492188 25.6640625 C-31.72177734 25.3546875 -30.64863281 25.0453125 -29.54296875 24.7265625 C-28.55321045 24.44377441 -27.56345215 24.16098633 -26.54370117 23.86962891 C-23.80417893 23.05413341 -23.80417893 23.05413341 -21 21 C-19.68 21 -18.36 21 -17 21 C-17 20.34 -17 19.68 -17 19 C-14.98828125 17.703125 -14.98828125 17.703125 -12.3125 16.25 C-4.75511301 11.83528879 -2.50211632 8.75740713 0 0 Z " fill="#9F9E9C" transform="translate(352,54)"/>
<path d="M0 0 C5.06211138 0.81028156 9.811657 2.51541215 14.65551758 4.14282227 C15.6218512 4.46483612 16.58818481 4.78684998 17.58380127 5.11862183 C20.77166786 6.18170777 23.95809721 7.24903494 27.14453125 8.31640625 C29.35690219 9.05510684 31.5693617 9.79354223 33.78190613 10.53172302 C39.60081276 12.47390216 45.41850908 14.41968225 51.23596191 16.36621094 C57.17416023 18.3524338 63.11349443 20.33525387 69.05273438 22.31835938 C80.70293806 26.20890732 92.35186615 30.10325982 104 34 C104 34.99 104 35.98 104 37 C97.74835275 35.73358838 91.75677804 34.05928783 85.71655273 32.01904297 C84.83741714 31.7261438 83.95828156 31.43324463 83.05250549 31.13146973 C80.17808985 30.17264049 77.30584676 29.20747365 74.43359375 28.2421875 C72.42876632 27.57204451 70.4238051 26.90230162 68.41871643 26.23294067 C63.1649498 24.4778836 57.9130084 22.71742656 52.66143799 20.95581055 C47.29296914 19.15605578 41.92277887 17.36145297 36.55273438 15.56640625 C26.03347219 12.04928993 15.51613244 8.52646224 5 5 C4.80591553 5.72109955 4.61183105 6.4421991 4.41186523 7.18515015 C2.45927105 14.39969628 0.32420256 21.52132827 -2 28.625 C-2.34289062 29.71167969 -2.68578125 30.79835937 -3.0390625 31.91796875 C-3.37679687 32.94792969 -3.71453125 33.97789062 -4.0625 35.0390625 C-4.36285156 35.96928223 -4.66320312 36.89950195 -4.97265625 37.85791016 C-5.31167969 38.5647998 -5.65070312 39.27168945 -6 40 C-9 41 -9 41 -12 40 C-11.4050829 34.79373547 -10.19937085 30.05813798 -8.49609375 25.09765625 C-8.2533522 24.3750914 -8.01061066 23.65252655 -7.76051331 22.9080658 C-6.99184073 20.62425181 -6.2148266 18.34338111 -5.4375 16.0625 C-4.91155318 14.50474497 -4.3861571 12.94680388 -3.86132812 11.38867188 C-2.58057492 7.59026747 -1.2923382 3.79447765 0 0 Z " fill="#9A9A9A" transform="translate(590,156)"/>
<path d="M0 0 C0 1.32 0 2.64 0 4 C-22.88868799 4.85697755 -45.73921607 5.13355601 -68.64239502 5.06866455 C-72.76745048 5.05815711 -76.89251295 5.05381031 -81.01757812 5.04882812 C-89.01173881 5.03832347 -97.0058596 5.02084563 -105 5 C-105 10.28 -105 15.56 -105 21 C-106.65 21 -108.3 21 -110 21 C-110 14.4 -110 7.8 -110 1 C-73.32456765 0.18499039 -36.68385072 -0.14004864 0 0 Z " fill="#9D9B98" transform="translate(418,135)"/>
<path d="M0 0 C0.92232422 0.01804687 1.84464844 0.03609375 2.79492188 0.0546875 C5.05188733 0.10146399 7.30662612 0.16698129 9.5625 0.25 C9.5625 1.9 9.5625 3.55 9.5625 5.25 C2.3025 5.25 -4.9575 5.25 -12.4375 5.25 C-12.4375 9.87 -12.4375 14.49 -12.4375 19.25 C-29.2675 19.25 -46.0975 19.25 -63.4375 19.25 C-63.4375 24.53 -63.4375 29.81 -63.4375 35.25 C-65.4175 35.25 -67.3975 35.25 -69.4375 35.25 C-69.4375 28.32 -69.4375 21.39 -69.4375 14.25 C-52.2775 14.25 -35.1175 14.25 -17.4375 14.25 C-17.4375 10.95 -17.4375 7.65 -17.4375 4.25 C-11.51144438 0.12045781 -7.11705273 -0.26644114 0 0 Z " fill="#A3A3A1" transform="translate(370.4375,93.75)"/>
<path d="M0 0 C20.51200029 5.54143794 20.51200029 5.54143794 24.8515625 12.05078125 C24.31102196 16.59132179 24.31102196 16.59132179 22.8515625 18.05078125 C10.48553352 18.85280123 0.28211619 16.52738593 -11.1484375 12.05078125 C-11.1484375 11.39078125 -11.1484375 10.73078125 -11.1484375 10.05078125 C-12.0971875 9.92703125 -13.0459375 9.80328125 -14.0234375 9.67578125 C-17.1484375 9.05078125 -17.1484375 9.05078125 -19.1484375 7.05078125 C-19.5234375 4.61328125 -19.5234375 4.61328125 -19.1484375 2.05078125 C-13.72474973 -3.05458624 -6.74040317 -1.65815765 0 0 Z " fill="#FBFBFB" transform="translate(660.1484375,114.94921875)"/>
<path d="M0 0 C0.99 2.97 0.99 2.97 2 6 C-6.30974215 7.30562921 -14.61973853 8.60962315 -22.93006706 9.91151428 C-26.78862918 10.51604732 -30.64710033 11.1211491 -34.50537109 11.72753906 C-38.22690527 12.31241741 -41.94866849 12.89581695 -45.67059708 13.47817993 C-47.09248282 13.7009282 -48.51428437 13.92421454 -49.93600082 14.14804077 C-51.92309513 14.4607836 -53.91051466 14.77145799 -55.89794922 15.08203125 C-57.03046112 15.25968018 -58.16297302 15.4373291 -59.32980347 15.62036133 C-62 16 -62 16 -64 16 C-63.34 20.62 -62.68 25.24 -62 30 C-63.65 30 -65.3 30 -67 30 C-69.9750293 27.0249707 -69.02662939 18.7347178 -69.02734375 14.68359375 C-69.02035943 13.12238485 -69.01194925 11.56117879 -69 10 C-68.27224365 9.89977539 -67.5444873 9.79955078 -66.79467773 9.69628906 C-49.48123226 7.29960713 -32.22986324 4.69102079 -15.05395508 1.44287109 C-13.59638794 1.16950928 -13.59638794 1.16950928 -12.109375 0.890625 C-11.23120117 0.72336914 -10.35302734 0.55611328 -9.44824219 0.38378906 C-6.23939416 -0.11923339 -3.23987708 -0.14399454 0 0 Z " fill="#A1A1A1" transform="translate(233,63)"/>
<path d="M0 0 C1.36451294 0.00918457 1.36451294 0.00918457 2.7565918 0.01855469 C14.14916847 0.27592457 25.16809262 2.18616538 35.30102539 7.50976562 C37.61225158 8.68533242 39.9749516 9.50824625 42.4375 10.3125 C57.76326401 15.71402801 57.76326401 15.71402801 60.125 20.4375 C55.94553646 19.11701376 52.04033413 17.52114845 48.0625 15.6875 C41.90543068 13.01878092 35.69896599 10.97354143 29.25 9.125 C28.37077881 8.87073242 27.49155762 8.61646484 26.58569336 8.35449219 C13.44242977 4.69494157 -0.32627251 3.13222806 -12.875 9.4375 C-16.93251746 11.8437987 -19.73661322 14.84423899 -21.4140625 19.34375 C-22.73214027 25.33095072 -22.20272916 31.50554876 -20.875 37.4375 C-26.13168826 32.74910237 -28.53049201 28.53807194 -29.3125 21.5 C-29.0206921 15.21397159 -26.18234749 10.34862868 -21.625 6.125 C-15.34804683 0.70258253 -7.93210602 -0.0917263 0 0 Z " fill="#9C9C9C" transform="translate(636.875,89.5625)"/>
<path d="M0 0 C3.32033203 0.61332483 6.46571392 1.40541819 9.66772461 2.47349548 C10.57610077 2.77488937 11.48447693 3.07628326 12.42037964 3.3868103 C13.4044278 3.71669952 14.38847595 4.04658875 15.40234375 4.38647461 C16.44842804 4.73453659 17.49451233 5.08259857 18.57229614 5.44120789 C22.02834808 6.59199079 25.48294134 7.74708663 28.9375 8.90234375 C31.33968941 9.70347097 33.74195282 10.50437631 36.14428711 11.30506897 C41.17851925 12.98366773 46.21209722 14.66420718 51.24511719 16.34643555 C57.05695172 18.28895431 62.86982484 20.22833747 68.68330669 22.1659202 C74.2842426 24.03269507 79.88459331 25.90121981 85.48464966 27.77063179 C87.86398332 28.56480383 90.24343833 29.35861238 92.62301636 30.15205193 C95.94840243 31.26123666 99.27312236 32.37239492 102.59765625 33.48413086 C103.58170441 33.81199585 104.56575256 34.13986084 105.57962036 34.47766113 C106.48799652 34.78187485 107.39637268 35.08608856 108.33227539 35.39952087 C109.51026451 35.79302184 109.51026451 35.79302184 110.71205139 36.19447231 C113.17184579 37.06050247 115.5852896 38.01589489 118 39 C117.67 39.99 117.34 40.98 117 42 C96.50657449 35.41229522 76.0493261 28.73514462 55.6875 21.75 C54.83388885 21.45734253 53.98027771 21.16468506 53.10079956 20.86315918 C49.75051452 19.71445359 46.40034339 18.5654166 43.05033875 17.41589355 C35.41584784 14.79710843 27.77529571 12.19724907 20.125 9.625 C19.01987061 9.24956055 17.91474121 8.87412109 16.77612305 8.48730469 C15.78008057 8.15375977 14.78403809 7.82021484 13.7578125 7.4765625 C12.9033252 7.18861816 12.04883789 6.90067383 11.16845703 6.60400391 C8.89350357 5.86583688 8.89350357 5.86583688 6 6 C4.35 11.28 2.7 16.56 1 22 C-0.98 20.68 -2.96 19.36 -5 18 C-4.42934122 11.58008874 -2.32655091 5.98410537 0 0 Z " fill="#9A9A9A" transform="translate(591,131)"/>
<path d="M0 0 C1.98 0 3.96 0 6 0 C5.50697309 13.82020075 3.50116853 27.34101144 1.4375 41 C1.10420364 43.23949203 0.77151697 45.47907489 0.43945312 47.71875 C-0.36668198 53.14689901 -1.18029762 58.57388409 -2 64 C-6.84305108 64.03484209 -11.22928088 63.95414382 -16 63 C-17.423125 62.7215625 -17.423125 62.7215625 -18.875 62.4375 C-19.57625 62.293125 -20.2775 62.14875 -21 62 C-21 59.69 -21 57.38 -21 55 C-20.67 56.32 -20.34 57.64 -20 59 C-19.31292969 58.98839844 -18.62585938 58.97679687 -17.91796875 58.96484375 C-17.01691406 58.95582031 -16.11585938 58.94679687 -15.1875 58.9375 C-13.84751953 58.92009766 -13.84751953 58.92009766 -12.48046875 58.90234375 C-10 59 -10 59 -7 60 C-7.02835937 58.88367188 -7.05671875 57.76734375 -7.0859375 56.6171875 C-7.08377831 51.70071417 -6.38422139 46.97351993 -5.625 42.125 C-4.43522174 34.23903169 -3.42457134 26.35986418 -2.64697266 18.42236328 C-2.10320376 13.10320376 -2.10320376 13.10320376 -1 12 C-0.76572222 9.98405418 -0.58663876 7.961526 -0.4375 5.9375 C-0.35371094 4.83277344 -0.26992188 3.72804688 -0.18359375 2.58984375 C-0.09271484 1.30787109 -0.09271484 1.30787109 0 0 Z " fill="#9B9B9B" transform="translate(494,91)"/>
<path d="M0 0 C0 1.65 0 3.3 0 5 C-6.84374649 7.44419518 -13.79305973 7.59546686 -21 8 C-20.82621826 8.89033936 -20.65243652 9.78067871 -20.47338867 10.69799805 C-18.3622468 21.71298312 -16.53491561 32.7637324 -14.78295898 43.84106445 C-14.3059955 46.85358266 -13.82408244 49.86528286 -13.34179688 52.87695312 C-13.03616607 54.79943273 -12.73081674 56.7219571 -12.42578125 58.64453125 C-12.28207596 59.54130081 -12.13837067 60.43807037 -11.99031067 61.36201477 C-11.79461739 62.60557991 -11.79461739 62.60557991 -11.5949707 63.87426758 C-11.47966507 64.60100174 -11.36435944 65.3277359 -11.24555969 66.07649231 C-11 68 -11 68 -11 71 C-12.65 71 -14.3 71 -16 71 C-18.77463572 54.81611192 -21.4123743 38.61873524 -23.8125 22.375 C-23.92322845 21.63203674 -24.03395691 20.88907349 -24.14804077 20.12359619 C-24.46270503 18.00735069 -24.77315112 15.8905341 -25.08203125 13.7734375 C-25.25968018 12.56091309 -25.4373291 11.34838867 -25.62036133 10.09912109 C-26 7 -26 7 -26 3 C-22.60500696 2.49418146 -19.20888518 1.99637756 -15.8125 1.5 C-14.37293945 1.28537109 -14.37293945 1.28537109 -12.90429688 1.06640625 C-11.50727539 0.86337891 -11.50727539 0.86337891 -10.08203125 0.65625 C-9.22843018 0.53056641 -8.3748291 0.40488281 -7.49536133 0.27539062 C-4.97530325 -0.00272556 -2.53314218 -0.047608 0 0 Z " fill="#9E9E9E" transform="translate(273,57)"/>
<path d="M0 0 C0 1.65 0 3.3 0 5 C-9.72127528 6.91238202 -19.46939302 8.60722417 -29.25 10.1875 C-30.89246704 10.45578613 -30.89246704 10.45578613 -32.56811523 10.72949219 C-33.60266846 10.89481445 -34.63722168 11.06013672 -35.703125 11.23046875 C-36.62770508 11.37895264 -37.55228516 11.52743652 -38.50488281 11.68041992 C-41 12 -41 12 -45 12 C-44.81300537 13.10512939 -44.62601074 14.21025879 -44.43334961 15.34887695 C-43.74209427 19.44581416 -43.06039776 23.54429385 -42.3815918 27.64331055 C-42.08635161 29.41783554 -41.78851396 31.19193039 -41.48803711 32.96557617 C-41.05681168 35.51372642 -40.63492333 38.06327295 -40.21484375 40.61328125 C-40.07843979 41.40712723 -39.94203583 42.20097321 -39.80149841 43.01887512 C-39.24572624 46.44293556 -38.88629586 48.65888758 -40 52 C-40 51.34 -40 50.68 -40 50 C-41.32 50 -42.64 50 -44 50 C-44.18175781 48.77667969 -44.36351562 47.55335938 -44.55078125 46.29296875 C-44.80452662 44.59112184 -45.05844633 42.88930091 -45.3125 41.1875 C-45.44567627 40.29417969 -45.57885254 39.40085938 -45.71606445 38.48046875 C-46.41081861 33.84389036 -47.12072809 29.21058739 -47.8671875 24.58203125 C-48.07347778 23.30066284 -48.07347778 23.30066284 -48.28393555 21.9934082 C-48.5483083 20.35999085 -48.8153012 18.72699493 -49.08520508 17.09448242 C-49.63995117 13.66443263 -50 10.48550296 -50 7 C-48.68 7 -47.36 7 -46 7 C-45.67 6.01 -45.34 5.02 -45 4 C-44.67 4.66 -44.34 5.32 -44 6 C-42.91581787 5.81824219 -41.83163574 5.63648437 -40.71459961 5.44921875 C-36.66947413 4.77261568 -32.62314237 4.10347899 -28.57641602 3.43652344 C-26.82933626 3.14752551 -25.08258438 2.85653786 -23.33618164 2.56347656 C-20.81741785 2.14116886 -18.29753888 1.7261693 -15.77734375 1.3125 C-15.00414291 1.18125732 -14.23094208 1.05001465 -13.43431091 0.91479492 C-8.89031168 0.17740388 -4.60363793 -0.12795288 0 0 Z " fill="#979797" transform="translate(217,91)"/>
<path d="M0 0 C0.04241723 2.33294775 0.04092937 4.66702567 0 7 C-1.51230968 8.51230968 -3.06694075 8.42846983 -5.16503906 8.75610352 C-6.04975891 8.89617325 -6.93447876 9.03624298 -7.8460083 9.18055725 C-8.80948181 9.32851242 -9.77295532 9.47646759 -10.765625 9.62890625 C-12.24394806 9.8598423 -12.24394806 9.8598423 -13.75213623 10.09544373 C-15.8433962 10.421034 -17.93498081 10.74454479 -20.02685547 11.06616211 C-23.22327968 11.55838529 -26.41831247 12.05897378 -29.61328125 12.56054688 C-31.64315068 12.87550623 -33.67309627 13.18997523 -35.703125 13.50390625 C-36.65850159 13.65388565 -37.61387817 13.80386505 -38.59820557 13.95838928 C-39.49553406 14.09530685 -40.39286255 14.23222443 -41.31738281 14.37329102 C-42.49533417 14.55529808 -42.49533417 14.55529808 -43.69708252 14.74098206 C-46.14943316 15.01680732 -48.53425022 15.04375487 -51 15 C-51.33 12.36 -51.66 9.72 -52 7 C-46.04245991 5.99375951 -40.08340929 4.99719136 -34.12280273 4.00927734 C-32.0982783 3.67236805 -30.07417952 3.33288996 -28.05053711 2.99072266 C-25.12984526 2.49734797 -22.20771146 2.01344856 -19.28515625 1.53125 C-18.39103531 1.37813354 -17.49691437 1.22501709 -16.57569885 1.06726074 C-10.97427031 0.15467969 -5.67587 -0.14082797 0 0 Z " fill="#989898" transform="translate(267,158)"/>
<path d="M0 0 C3.41443379 0.62814054 6.64658263 1.46204101 9.94213867 2.55053711 C10.89630173 2.86433823 11.85046478 3.17813934 12.83354187 3.50144958 C14.36033318 4.0092672 14.36033318 4.0092672 15.91796875 4.52734375 C16.97156082 4.87632217 18.02515289 5.2253006 19.110672 5.58485413 C21.33268959 6.32215702 23.55416988 7.0610809 25.77514648 7.80151367 C29.18324776 8.93608441 32.59443384 10.06101719 36.00585938 11.18554688 C38.16425798 11.90305805 40.32246778 12.6211375 42.48046875 13.33984375 C43.50440231 13.67636459 44.52833588 14.01288544 45.58329773 14.35960388 C46.5280043 14.67655716 47.47271088 14.99351044 48.44604492 15.32006836 C49.27923752 15.59684921 50.11243011 15.87363007 50.97087097 16.15879822 C53 17 53 17 55 19 C54.625 21.625 54.625 21.625 54 24 C47.23808597 22.61804702 40.81024419 20.73702289 34.27734375 18.5234375 C33.29125626 18.19332672 32.30516876 17.86321594 31.28919983 17.52310181 C28.17051967 16.4779884 25.05399684 15.42660382 21.9375 14.375 C19.81068684 13.66104125 17.68373501 12.94749546 15.55664062 12.234375 C10.36948084 10.49435468 5.18407287 8.74919435 0 7 C-1.125 2.25 -1.125 2.25 0 0 Z " fill="#9D9D9D" transform="translate(614,186)"/>
<path d="M0 0 C-0.60181057 3.37013917 -1.67271907 5.47921482 -4 8 C-6.26953125 9.1953125 -6.26953125 9.1953125 -8.8125 10.125 C-10.14087891 10.62 -10.14087891 10.62 -11.49609375 11.125 C-14.32130459 12.11228117 -17.160876 13.05362533 -20 14 C-21.34721283 14.63815344 -22.68747118 15.29325371 -24 16 C-24 16.99 -24 17.98 -24 19 C-25.1875 20.6875 -25.1875 20.6875 -27 22 C-29.5625 22.3125 -29.5625 22.3125 -32 22 C-34 20 -34 20 -34.38671875 17.59375 C-34 15 -34 15 -32.20703125 13.15625 C-31.41683594 12.6096875 -30.62664062 12.063125 -29.8125 11.5 C-27.01731407 9.50343862 -24.85602665 7.83756853 -22.5625 5.25 C-16.27437791 -0.27127793 -8.00668784 -0.45995866 0 0 Z " fill="#808080" transform="translate(438,30)"/>
<path d="M0 0 C4.875 0.875 4.875 0.875 6 2 C6.5416362 5.39515482 6.80233201 8.82790141 7.125 12.25 C7.22425781 13.20519531 7.32351563 14.16039062 7.42578125 15.14453125 C7.51472656 16.07136719 7.60367187 16.99820312 7.6953125 17.953125 C7.77797363 18.80036133 7.86063477 19.64759766 7.94580078 20.52050781 C8.00368625 23.16863773 7.56495954 25.41970161 7 28 C6.95729327 30.22875754 6.95933782 32.45870422 7 34.6875 C7.11038251 40.77923497 7.11038251 40.77923497 6 43 C4.68 43 3.36 43 2 43 C-1.23892277 37.38586721 -1.12596283 31.50871489 -0.87890625 25.1953125 C-0.85529526 24.4713327 -0.83168427 23.74735291 -0.80735779 23.00143433 C-0.73132307 20.70905949 -0.64704376 18.41707519 -0.5625 16.125 C-0.50921886 14.56251855 -0.45647897 13.00001854 -0.40429688 11.4375 C-0.2757905 7.62475684 -0.13989371 3.81234164 0 0 Z " fill="#878787" transform="translate(362,5)"/>
<path d="M0 0 C0 1.65 0 3.3 0 5 C0.99 5.33 1.98 5.66 3 6 C-3.35326087 7.00010296 -9.70707133 7.996655 -16.0612793 8.99072266 C-18.22351746 9.32941972 -20.38562778 9.66893401 -22.54760742 10.00927734 C-25.65250044 10.49791157 -28.75783911 10.98361949 -31.86328125 11.46875 C-32.83211746 11.62186646 -33.80095367 11.77498291 -34.79914856 11.93273926 C-35.6998558 12.07288452 -36.60056305 12.21302979 -37.52856445 12.35742188 C-38.32132278 12.48177612 -39.11408112 12.60613037 -39.93086243 12.73425293 C-42 13 -42 13 -45 13 C-45 11.02 -45 9.04 -45 7 C-38.91308905 6.00107559 -32.82584574 5.00421125 -26.73828125 4.00927734 C-24.66624775 3.67032958 -22.59430717 3.33081325 -20.52246094 2.99072266 C-17.54906924 2.50274498 -14.57535229 2.01679496 -11.6015625 1.53125 C-10.67131256 1.37813354 -9.74106262 1.22501709 -8.78262329 1.06726074 C-7.92188202 0.92711548 -7.06114075 0.78697021 -6.17431641 0.64257812 C-5.41486725 0.51822388 -4.65541809 0.39386963 -3.87295532 0.26574707 C-2 0 -2 0 0 0 Z " fill="#979797" transform="translate(245,110)"/>
<path d="M0 0 C0.99 0.33 1.98 0.66 3 1 C3.73046875 3.06640625 3.73046875 3.06640625 4.1875 5.5625 C4.34605469 6.38878906 4.50460937 7.21507812 4.66796875 8.06640625 C4.77753906 8.70449219 4.88710938 9.34257813 5 10 C5.66 10 6.32 10 7 10 C7 10.66 7 11.32 7 12 C8.32 12 9.64 12 11 12 C11.33 13.65 11.66 15.3 12 17 C12.66 17 13.32 17 14 17 C16.12294056 19.20459212 16.93917802 20.57424611 17.375 23.625 C17.25125 24.40875 17.1275 25.1925 17 26 C14 28 14 28 10.9375 27.4375 C8 26 8 26 6.75 23.5 C6.5025 22.675 6.255 21.85 6 21 C5.34 20.34 4.68 19.68 4 19 C3.71125 18.195625 3.4225 17.39125 3.125 16.5625 C2.22174835 13.89385841 2.22174835 13.89385841 0 12.625 C-2.91725377 10.25473131 -3.19131286 7.57170152 -4 4 C-2.68 2.68 -1.36 1.36 0 0 Z " fill="#A0A0A0" transform="translate(324,24)"/>
<path d="M0 0 C2.475 0.495 2.475 0.495 5 1 C5 1.66 5 2.32 5 3 C5.9590625 3.1546875 5.9590625 3.1546875 6.9375 3.3125 C9.52860254 3.89417608 11.87632276 4.62439516 14.375 5.5 C22.54475692 8.24557405 30.45934206 8.11558785 39 8 C39.33 5.69 39.66 3.38 40 1 C44.875 3.75 44.875 3.75 46 6 C46.25 9 46.25 9 46 12 C41.06900644 15.28732904 35.73348385 14.89605686 30 14 C26.33491609 13.11038225 22.76629008 11.99946851 19.1875 10.8125 C18.30465332 10.52125244 17.42180664 10.23000488 16.51220703 9.92993164 C2.5076433 5.01528661 2.5076433 5.01528661 0 0 Z " fill="#9B9B9B" transform="translate(644,124)"/>
<path d="M0 0 C0.98654068 0.00358521 1.97308136 0.00717041 2.98951721 0.01086426 C16.46412045 0.0805448 29.93740449 0.32385602 43.40997314 0.55731201 C46.99790101 0.61905693 50.58586613 0.6785581 54.17382812 0.73828125 C61.14587005 0.85464799 68.11786962 0.97338423 75.08984375 1.09375 C75.08984375 1.42375 75.08984375 1.75375 75.08984375 2.09375 C38.41534857 2.88366416 1.77295406 3.22476111 -34.91015625 3.09375 C-34.91015625 9.69375 -34.91015625 16.29375 -34.91015625 23.09375 C-35.24015625 23.09375 -35.57015625 23.09375 -35.91015625 23.09375 C-35.91015625 16.16375 -35.91015625 9.23375 -35.91015625 2.09375 C-26.84765625 1.65625 -26.84765625 1.65625 -24.03491211 1.52563477 C-23.28089111 1.48752686 -22.52687012 1.44941895 -21.75 1.41015625 C-20.99066162 1.37349854 -20.23132324 1.33684082 -19.44897461 1.29907227 C-16.79360852 1.11809392 -16.79360852 1.11809392 -13.72705078 0.57983398 C-9.11949964 -0.00694063 -4.63868122 -0.03293599 0 0 Z " fill="#DCDAD6" transform="translate(342.91015625,132.90625)"/>
<path d="M0 0 C0.43699219 1.40185547 0.43699219 1.40185547 0.8828125 2.83203125 C1.07770264 3.45650146 1.27259277 4.08097168 1.47338867 4.72436523 C1.91405529 6.13651271 2.35431106 7.54878844 2.79418945 8.96118164 C4.04545706 12.97176635 5.3106678 16.97728691 6.59765625 20.9765625 C6.86239746 21.80309326 7.12713867 22.62962402 7.39990234 23.48120117 C7.91131487 25.07615513 8.42578811 26.67013212 8.94384766 28.26293945 C10.6042139 33.4550827 11.90429751 38.66052408 13 44 C11.68 44 10.36 44 9 44 C1.16077576 21.96076464 1.16077576 21.96076464 -2 11.1875 C-2.20713623 10.48375244 -2.41427246 9.78000488 -2.62768555 9.05493164 C-4 4.27606949 -4 4.27606949 -4 2 C-4.66 1.67 -5.32 1.34 -6 1 C-3 0 -3 0 0 0 Z " fill="#A1A1A1" transform="translate(113,120)"/>
<path d="M0 0 C5.04089531 0.82112371 9.80095313 2.46825018 14.640625 4.0546875 C15.56341248 4.35690216 16.48619995 4.65911682 17.43695068 4.9704895 C19.38075805 5.60922902 21.32396365 6.24980237 23.26660156 6.89208984 C25.2609371 7.54914343 27.25705465 8.2008118 29.25488281 8.84716797 C32.13741291 9.77975124 35.01441655 10.72781222 37.890625 11.6796875 C38.78847717 11.9672995 39.68632935 12.2549115 40.61138916 12.55123901 C41.43604675 12.82807526 42.26070435 13.1049115 43.11035156 13.39013672 C43.83917542 13.62916718 44.56799927 13.86819763 45.31890869 14.11447144 C47 15 47 15 48 18 C42.47225212 17.45294529 37.5022588 16.39546054 32.24609375 14.56640625 C31.54154556 14.32840805 30.83699738 14.09040985 30.11109924 13.84519958 C27.88406296 13.09143892 25.66072002 12.32743472 23.4375 11.5625 C21.21004167 10.80325457 18.98186 10.04619034 16.75318909 9.29051208 C15.37434663 8.82222727 13.99630609 8.35157165 12.61924744 7.87806702 C8.44244824 6.45021342 4.25130785 5.18048023 0 4 C0 2.68 0 1.36 0 0 Z " fill="#F2F2F2" transform="translate(614,186)"/>
<path d="M0 0 C0 3.3 0 6.6 0 10 C-10.89 10 -21.78 10 -33 10 C-29.91532459 8.45766229 -27.76772406 7.58017752 -24.515625 6.81640625 C-23.66226562 6.61080078 -22.80890625 6.40519531 -21.9296875 6.19335938 C-20.15890496 5.7764769 -18.38807251 5.35980637 -16.6171875 4.94335938 C-11.68015249 3.75357842 -4.86657767 0 0 0 Z " fill="#FFFDFA" transform="translate(353,98)"/>
<path d="M0 0 C12.54 0 25.08 0 38 0 C38 1.32 38 2.64 38 4 C25.46 4 12.92 4 0 4 C0 2.68 0 1.36 0 0 Z " fill="#9A9999" transform="translate(386,108)"/>
<path d="M0 0 C1.98 0 3.96 0 6 0 C6 13.2 6 26.4 6 40 C-2.91 40 -11.82 40 -21 40 C-21 38.35 -21 36.7 -21 35 C-22.65 35 -24.3 35 -26 35 C-26 30.71 -26 26.42 -26 22 C-24.35 22 -22.7 22 -21 22 C-20.67 27.61 -20.34 33.22 -20 39 C-11.75 39 -3.5 39 5 39 C5 26.46 5 13.92 5 1 C3.35 1 1.7 1 0 1 C0 0.67 0 0.34 0 0 Z " fill="#FEDA7C" transform="translate(418,139)"/>
<path d="M0 0 C0 0.66 0 1.32 0 2 C-6.21082296 3.00017284 -12.42222031 3.99671667 -18.6340332 4.99072266 C-20.74777458 5.32940186 -22.86138236 5.66891597 -24.97485352 6.00927734 C-28.01023292 6.49795847 -31.0460779 6.98364896 -34.08203125 7.46875 C-35.5024749 7.69842468 -35.5024749 7.69842468 -36.95161438 7.93273926 C-38.27264412 8.14295715 -38.27264412 8.14295715 -39.62036133 8.35742188 C-40.39535477 8.48177612 -41.17034821 8.60613037 -41.96882629 8.73425293 C-44 9 -44 9 -47 9 C-47 8.01 -47 7.02 -47 6 C-41.91543946 5.13506495 -36.82920742 4.28101213 -31.74121094 3.43652344 C-30.01448658 3.14841377 -28.28823462 2.85745651 -26.5625 2.56347656 C-8.91366267 -0.43927701 -8.91366267 -0.43927701 0 0 Z " fill="#EBEBEB" transform="translate(262,159)"/>
<path d="M0 0 C0.66 0 1.32 0 2 0 C1.979375 1.134375 1.95875 2.26875 1.9375 3.4375 C1.93064571 7.31017313 2.3054786 11.05532037 2.78125 14.89453125 C3.06229585 17.59959757 3 20.28248019 3 23 C3.43941523 25.26566343 3.43941523 25.26566343 4 27 C3.34 27 2.68 27 2 27 C2 27.66 2 28.32 2 29 C2.66 29 3.32 29 4 29 C4.62529897 23.9752761 5.13012092 19.07471573 5 14 C5.66 13.67 6.32 13.34 7 13 C7.02689449 15.95839355 7.04678741 18.91654427 7.0625 21.875 C7.07087891 22.71675781 7.07925781 23.55851562 7.08789062 24.42578125 C7.09111328 25.23144531 7.09433594 26.03710938 7.09765625 26.8671875 C7.10289307 27.61081543 7.10812988 28.35444336 7.11352539 29.12060547 C7 31 7 31 6 33 C4.68 33 3.36 33 2 33 C-3.49160265 23.48122207 -0.91331045 10.40521551 0 0 Z " fill="#888888" transform="translate(362,15)"/>
<path d="M0 0 C5.67286977 0.55082552 10.64842124 1.62511065 16 3.5625 C16.7211499 3.81918457 17.4422998 4.07586914 18.18530273 4.34033203 C26.10465054 7.25558766 33.55444309 11.05175044 41 15 C40.67 15.66 40.34 16.32 40 17 C39.1234375 16.57589844 38.246875 16.15179688 37.34375 15.71484375 C25.299409 10.08281924 12.8050156 6.49154797 0 3 C0 2.01 0 1.02 0 0 Z " fill="#A5A29A" transform="translate(384,67)"/>
<path d="M0 0 C2.475 0.495 2.475 0.495 5 1 C5.33 1.99 5.66 2.98 6 4 C6.66 4 7.32 4 8 4 C10.21747812 6.30276574 10.96760006 7.52480092 11.1875 10.75 C11.125625 11.4925 11.06375 12.235 11 13 C7.6875 12.8125 7.6875 12.8125 4 12 C2.125 9.5 2.125 9.5 1 7 C0.67 6.67 0.34 6.34 0 6 C-0.04080783 4.00041636 -0.04254356 1.99954746 0 0 Z " fill="#6F6F6F" transform="translate(330,37)"/>
<path d="M0 0 C1.32 0 2.64 0 4 0 C4.19406478 1.64507218 4.38007935 3.29109594 4.5625 4.9375 C4.66691406 5.85402344 4.77132813 6.77054688 4.87890625 7.71484375 C4.91886719 8.46894531 4.95882813 9.22304688 5 10 C4.67 10.33 4.34 10.66 4 11 C3.95294038 12.56179116 3.96264148 14.12544667 4 15.6875 C4.04469939 19.58193458 3.80572583 23.17280232 3 27 C2.01 26.67 1.02 26.34 0 26 C0 25.34 0 24.68 0 24 C0.66 24 1.32 24 2 24 C1.67402832 23.43829102 1.34805664 22.87658203 1.01220703 22.29785156 C-0.12012031 19.72731009 -0.23113622 18.02862481 -0.1953125 15.234375 C-0.18886719 14.34492187 -0.18242187 13.45546875 -0.17578125 12.5390625 C-0.15902344 11.61867188 -0.14226562 10.69828125 -0.125 9.75 C-0.11597656 8.81414063 -0.10695313 7.87828125 -0.09765625 6.9140625 C-0.07413636 4.60911343 -0.04126853 2.3046884 0 0 Z " fill="#6A6A6A" transform="translate(364,18)"/>
<path d="M0 0 C3.125 -0.1875 3.125 -0.1875 6 0 C5.67 1.32 5.34 2.64 5 4 C4.34 4 3.68 4 3 4 C3 4.99 3 5.98 3 7 C1.8125 8.6875 1.8125 8.6875 0 10 C-2.625 10.25 -2.625 10.25 -5 10 C-6 9 -6 9 -6.0625 6.4375 C-6.041875 5.633125 -6.02125 4.82875 -6 4 C-5.38125 3.896875 -4.7625 3.79375 -4.125 3.6875 C-1.63473516 3.12474627 -1.63473516 3.12474627 0 0 Z " fill="#797979" transform="translate(411,42)"/>
<path d="M0 0 C4.72438817 1.56830651 9.44429105 3.14860651 14.15625 4.75390625 C15.93748781 5.35680686 17.71873791 5.95967113 19.5 6.5625 C20.38558594 6.86607422 21.27117188 7.16964844 22.18359375 7.48242188 C27.74642074 9.35711908 33.24758796 10.82496461 39 12 C36 14 36 14 33.79956055 13.70385742 C32.51239136 13.31484253 32.51239136 13.31484253 31.19921875 12.91796875 C30.22130371 12.62583496 29.24338867 12.33370117 28.23583984 12.03271484 C22.41123641 10.17379885 16.60466104 8.27028166 10.8125 6.3125 C9.57435547 5.89677734 8.33621094 5.48105469 7.06054688 5.05273438 C4.03942347 4.03791686 1.0192786 3.02029029 -2 2 C-1.34 1.34 -0.68 0.68 0 0 Z " fill="#DCDCDC" transform="translate(637,144)"/>
<path d="M0 0 C1.65 0 3.3 0 5 0 C5 4.29 5 8.58 5 13 C3.35 13 1.7 13 0 13 C0 8.71 0 4.42 0 0 Z " fill="#A3A3A3" transform="translate(392,161)"/>
<path d="M0 0 C0.99 0.33 1.98 0.66 3 1 C3.94921875 3.50390625 3.94921875 3.50390625 4.6875 6.5625 C4.93886719 7.57441406 5.19023437 8.58632813 5.44921875 9.62890625 C5.63097656 10.41136719 5.81273437 11.19382812 6 12 C3.69 11.34 1.38 10.68 -1 10 C-1.9765625 3.9453125 -1.9765625 3.9453125 -2 2 C-1.34 1.34 -0.68 0.68 0 0 Z " fill="#7E7E7E" transform="translate(324,24)"/>
<path d="M0 0 C0.33 0 0.66 0 1 0 C1 3.3 1 6.6 1 10 C-9.89 10 -20.78 10 -32 10 C-27.60171741 7.8008587 -24.81449408 7.48144941 -20 7 C-20 7.33 -20 7.66 -20 8 C-13.4 8.33 -6.8 8.66 0 9 C0 6.03 0 3.06 0 0 Z " fill="#F5F2EB" transform="translate(352,98)"/>
<path d="M0 0 C0.33 0.66 0.66 1.32 1 2 C4.63 2 8.26 2 12 2 C12 3.32 12 4.64 12 6 C8.04 6 4.08 6 0 6 C0 4.02 0 2.04 0 0 Z " fill="#969696" transform="translate(564,111)"/>
<path d="M0 0 C0.66 0 1.32 0 2 0 C1.979375 1.2375 1.95875 2.475 1.9375 3.75 C1.92708803 6.69658724 2.23285893 9.15061887 3 12 C2.67 12.66 2.34 13.32 2 14 C1.77141886 16.0374763 1.58975722 18.08040303 1.4375 20.125 C1.35371094 21.22070312 1.26992188 22.31640625 1.18359375 23.4453125 C1.12300781 24.28835937 1.06242187 25.13140625 1 26 C-3.60047603 19.09928596 -0.69411498 7.90795283 0 0 Z " fill="#C0C0C0" transform="translate(362,15)"/>
<path d="M0 0 C1.98 0.66 3.96 1.32 6 2 C5.67 3.98 5.34 5.96 5 8 C0.545 7.01 0.545 7.01 -4 6 C-3.01 5.01 -2.02 4.02 -1 3 C-0.67 2.01 -0.34 1.02 0 0 Z " fill="#949494" transform="translate(663,202)"/>
<path d="M0 0 C-0.33 1.32 -0.66 2.64 -1 4 C-3.64 4.66 -6.28 5.32 -9 6 C-9 4.35 -9 2.7 -9 1 C-6.04335481 -0.4783226 -3.25770263 -0.06032783 0 0 Z " fill="#6B6B6B" transform="translate(437,31)"/>
<path d="M0 0 C0.66 0.33 1.32 0.66 2 1 C1.1875 2.9375 1.1875 2.9375 0 5 C-0.99 5.33 -1.98 5.66 -3 6 C-3.99 7.485 -3.99 7.485 -5 9 C-5.99 9 -6.98 9 -8 9 C-8.66 10.32 -9.32 11.64 -10 13 C-10.27734375 10.734375 -10.27734375 10.734375 -10 8 C-8.06640625 6.015625 -8.06640625 6.015625 -5.5625 4.25 C-4.73878906 3.65703125 -3.91507812 3.0640625 -3.06640625 2.453125 C-2.38449219 1.97359375 -1.70257813 1.4940625 -1 1 C-0.67 0.67 -0.34 0.34 0 0 Z " fill="#858585" transform="translate(414,37)"/>
<path d="M0 0 C0.33 0.99 0.66 1.98 1 3 C0.34 3.66 -0.32 4.32 -1 5 C-3.72869407 4.96712417 -6.2966618 4.43602229 -9 4 C-9.33 3.01 -9.66 2.02 -10 1 C-6.7 1.33 -3.4 1.66 0 2 C0 1.34 0 0.68 0 0 Z " fill="#A4A4A4" transform="translate(662,202)"/>
<path d="M0 0 C2.02907167 3.3146667 2.12742133 5.4315979 1.625 9.25 C1.51414062 10.14203125 1.40328125 11.0340625 1.2890625 11.953125 C1.19367188 12.62859375 1.09828125 13.3040625 1 14 C0.01 13.67 -0.98 13.34 -2 13 C-2 12.34 -2 11.68 -2 11 C-1.34 11 -0.68 11 0 11 C-0.350625 10.443125 -0.70125 9.88625 -1.0625 9.3125 C-2.23172641 6.42840819 -1.85339516 4.94809235 -1 2 C-0.67 1.34 -0.34 0.68 0 0 Z " fill="#636363" transform="translate(366,31)"/>
<path d="M0 0 C-0.33 0.99 -0.66 1.98 -1 3 C-1 2.34 -1 1.68 -1 1 C-6.445 1.495 -6.445 1.495 -12 2 C-12.33 2.99 -12.66 3.98 -13 5 C-14.65 4.67 -16.3 4.34 -18 4 C-13.50583128 -1.4403095 -6.44809835 -0.11268521 0 0 Z " fill="#A9A9A9" transform="translate(438,30)"/>
<path d="M0 0 C3 1 3 1 4.6875 3.9375 C6 7 6 7 6 9 C5.01 9 4.02 9 3 9 C0.50022457 5.66696609 0 4.26696398 0 0 Z " fill="#ACA99F" transform="translate(309,94)"/>
<path d="M0 0 C0.33 0 0.66 0 1 0 C1.33 2.64 1.66 5.28 2 8 C3.98 8.66 5.96 9.32 8 10 C7.01 11.485 7.01 11.485 6 13 C2.50168184 10.69847489 1.13408528 9.35349756 -0.375 5.375 C-1 2 -1 2 0 0 Z " fill="#959595" transform="translate(321,26)"/>
<path d="M0 0 C1.32 0.33 2.64 0.66 4 1 C3.67 3.31 3.34 5.62 3 8 C2.01 7.34 1.02 6.68 0 6 C-0.1875 2.875 -0.1875 2.875 0 0 Z " fill="#646464" transform="translate(363,7)"/>
<path d="M0 0 C1.46067199 0.45082469 2.91848032 0.91093537 4.375 1.375 C5.18710937 1.63023437 5.99921875 1.88546875 6.8359375 2.1484375 C9 3 9 3 11 5 C6.428721 4.45144652 2.32564205 3.58255197 -2 2 C-1.34 1.34 -0.68 0.68 0 0 Z " fill="#E8E8E8" transform="translate(637,144)"/>
<path d="M0 0 C1.134375 0.020625 2.26875 0.04125 3.4375 0.0625 C3.4375 1.0525 3.4375 2.0425 3.4375 3.0625 C0.5625 3.1875 0.5625 3.1875 -2.5625 3.0625 C-3.2225 2.4025 -3.8825 1.7425 -4.5625 1.0625 C-3.5625 0.0625 -3.5625 0.0625 0 0 Z " fill="#606060" transform="translate(421.5625,35.9375)"/>
<path d="M0 0 C3.3 0 6.6 0 10 0 C10 0.66 10 1.32 10 2 C5.545 2.495 5.545 2.495 1 3 C0.67 2.01 0.34 1.02 0 0 Z " fill="#DEDEDE" transform="translate(252,159)"/>
<path d="M0 0 C0 0.99 0 1.98 0 3 C-2.97 3.66 -5.94 4.32 -9 5 C-8.34 4.67 -7.68 4.34 -7 4 C-7 3.34 -7 2.68 -7 2 C-4.69 1.34 -2.38 0.68 0 0 Z " fill="#A2A2A2" transform="translate(434,35)"/>
<path d="M0 0 C0.66 0 1.32 0 2 0 C1.979375 1.2375 1.95875 2.475 1.9375 3.75 C1.93233319 6.6640825 2.06984442 9.20953327 3 12 C2.01 12 1.02 12 0 12 C0 8.04 0 4.08 0 0 Z " fill="#ABABAB" transform="translate(362,15)"/>
<path d="M0 0 C0.66 0.66 1.32 1.32 2 2 C3.98821313 2.39764263 5.98944339 2.73775349 8 3 C7.01 3.495 7.01 3.495 6 4 C6 4.66 6 5.32 6 6 C4.02 5.34 2.04 4.68 0 4 C0 2.68 0 1.36 0 0 Z " fill="#979797" transform="translate(613,188)"/>
<path d="M0 0 C2.475 0.495 2.475 0.495 5 1 C5 1.99 5 2.98 5 4 C4.01 3.67 3.02 3.34 2 3 C1.34 3.99 0.68 4.98 0 6 C0 4.02 0 2.04 0 0 Z " fill="#797979" transform="translate(330,37)"/>
<path d="M0 0 C3.63 0.33 7.26 0.66 11 1 C11 1.33 11 1.66 11 2 C7.7 2.33 4.4 2.66 1 3 C0.67 2.01 0.34 1.02 0 0 Z " fill="#D3D3D3" transform="translate(233,162)"/>
<path d="M0 0 C2.475 0.495 2.475 0.495 5 1 C5 1.66 5 2.32 5 3 C6.32 3.33 7.64 3.66 9 4 C7.3125 4.8125 7.3125 4.8125 5 5 C2.25 2.5625 2.25 2.5625 0 0 Z " fill="#AAAAAA" transform="translate(644,124)"/>
</svg>
