<svg xmlns="http://www.w3.org/2000/svg" width="500" height="500" viewBox="0 30 500 500" version="1.1"><path d="M 240.276 233.212 C 239.709 233.920, 238.914 235.625, 238.510 237 C 236.725 243.074, 227.144 249.354, 217.729 250.621 L 212.959 251.263 213.635 254.882 C 215.305 263.815, 215.007 263.516, 222.091 263.347 C 229.546 263.168, 237.338 260.498, 244.457 255.682 L 249.414 252.329 253.672 255.580 C 259.675 260.162, 268.270 263.164, 275.909 263.347 C 282.993 263.516, 282.695 263.815, 284.365 254.882 L 285.041 251.263 280.271 250.621 C 274.430 249.835, 266.247 246.092, 263.350 242.882 C 262.167 241.572, 260.365 238.700, 259.345 236.500 L 257.490 232.500 249.399 232.212 C 243.705 232.009, 241.002 232.306, 240.276 233.212 M 239.813 267.123 L 239.500 270.246 226 270.373 L 212.500 270.500 212.205 277.204 L 211.911 283.908 248.955 283.976 L 286 284.044 286 277.115 L 286 270.187 277.750 270.191 C 257.012 270.201, 258 270.360, 258 267 L 258 264 249.063 264 L 240.127 264 239.813 267.123 M 214.202 296.105 L 214.500 302.211 238.549 302.060 C 251.776 301.977, 263.364 302.202, 264.299 302.561 C 265.543 303.039, 266 304.394, 266 307.607 L 266 312 275 312 L 284 312 284 301 L 284 290 248.952 290 L 213.905 290 214.202 296.105" stroke="none" fill="#eeb919" fill-rule="evenodd"/><path d="M 207 206.989 C 207 207.532, 207.654 208.770, 208.454 209.739 C 209.254 210.707, 212.670 214.988, 216.044 219.250 C 222.118 226.923, 225 228.798, 225 225.077 C 225 222.981, 219.850 215.688, 214.177 209.750 C 210.819 206.235, 207 204.766, 207 206.989 M 239.992 210.026 C 239.171 210.545, 238.794 210.976, 239.153 210.985 C 239.512 210.993, 237.822 214.481, 235.398 218.735 C 230.960 226.521, 230.489 228.500, 233.069 228.500 C 234.852 228.500, 240.688 219.683, 242.191 214.718 C 243.456 210.538, 242.479 208.454, 239.992 210.026 M 289.442 212.220 C 286.760 214.024, 283.161 217.354, 281.442 219.619 C 278.501 223.498, 278.247 223.625, 277.103 221.793 C 274.026 216.866, 271.429 226.414, 274.326 232 C 275.247 233.775, 276.315 234.421, 278.011 234.227 C 281.183 233.863, 290 228.148, 290 226.455 C 290 224.238, 288.137 223.791, 285.779 225.442 C 284.556 226.299, 282.969 227, 282.252 227 C 279.253 227, 284.209 221.047, 290.532 217.054 C 294.881 214.307, 297.019 212.341, 296.813 211.278 C 296.288 208.571, 294.531 208.795, 289.442 212.220 M 201 225.285 C 201 226.783, 213.102 233, 216.019 233 C 220.312 233, 217.084 229.298, 209.982 226.077 C 204.852 223.750, 201 223.410, 201 225.285 M 237.035 233.869 C 236.462 235.998, 235.018 238.979, 233.825 240.495 C 230.938 244.166, 222.831 247.806, 215.763 248.606 C 210.567 249.194, 210.072 249.456, 210.519 251.378 C 210.790 252.545, 211.614 256.200, 212.349 259.500 L 213.687 265.500 221.594 265.354 C 225.942 265.273, 231.412 264.506, 233.750 263.648 L 238 262.089 238 265.044 L 238 268 223.500 268 L 209 268 209 277 L 209 286 249 286 L 289 286 289 277 L 289 268 274.500 268 L 260 268 260 265.044 L 260 262.089 264.250 263.648 C 266.587 264.506, 272.083 265.273, 276.462 265.354 L 284.424 265.500 285.543 260.500 C 286.158 257.750, 286.941 254.093, 287.281 252.374 L 287.901 249.247 282.200 248.602 C 275.165 247.806, 267.057 244.159, 264.175 240.495 C 262.982 238.979, 261.538 235.998, 260.965 233.869 L 259.923 230 249 230 L 238.077 230 237.035 233.869 M 240.276 233.212 C 239.709 233.920, 238.914 235.625, 238.510 237 C 236.725 243.074, 227.144 249.354, 217.729 250.621 L 212.959 251.263 213.635 254.882 C 215.305 263.815, 215.007 263.516, 222.091 263.347 C 229.546 263.168, 237.338 260.498, 244.457 255.682 L 249.414 252.329 253.672 255.580 C 259.675 260.162, 268.270 263.164, 275.909 263.347 C 282.993 263.516, 282.695 263.815, 284.365 254.882 L 285.041 251.263 280.271 250.621 C 274.430 249.835, 266.247 246.092, 263.350 242.882 C 262.167 241.572, 260.365 238.700, 259.345 236.500 L 257.490 232.500 249.399 232.212 C 243.705 232.009, 241.002 232.306, 240.276 233.212 M 175.688 235.998 C 171.392 236.984, 167.674 237.993, 167.425 238.241 C 166.819 238.848, 176.027 281.276, 176.992 282.326 C 177.747 283.147, 193.727 280.405, 195.857 279.088 C 196.639 278.605, 195.541 271.852, 192.174 256.450 C 186.689 231.359, 188.129 233.145, 175.688 235.998 M 310.138 237.699 C 306.829 250.712, 294.811 309.145, 295.336 309.669 C 296.147 310.480, 341.076 320.257, 341.597 319.736 C 342.226 319.108, 358.155 244.822, 357.749 244.415 C 357.545 244.212, 347.731 241.983, 335.939 239.462 C 324.148 236.942, 313.736 234.659, 312.802 234.389 C 311.515 234.017, 310.871 234.817, 310.138 237.699 M 135 245.764 C 123.725 248.269, 114.356 250.427, 114.181 250.562 C 113.458 251.113, 116.334 263, 117.190 263 C 117.701 263, 123.127 261.870, 129.247 260.488 C 136.632 258.821, 140.711 258.311, 141.371 258.971 C 141.919 259.519, 142.172 260.137, 141.933 260.346 C 141.695 260.555, 136.138 261.912, 129.585 263.362 C 123.031 264.811, 117.562 266.110, 117.431 266.249 C 117.152 266.541, 122.926 293.260, 123.362 293.695 C 123.726 294.060, 169.160 284.174, 169.727 283.607 C 169.953 283.380, 169.597 280.440, 168.935 277.073 C 167.976 272.202, 167.400 271.051, 166.115 271.441 C 159.053 273.582, 141.338 276.710, 140.567 275.951 C 140.053 275.446, 139.828 274.851, 140.067 274.629 C 140.305 274.407, 145.889 273.023, 152.475 271.554 C 159.062 270.084, 164.556 268.777, 164.685 268.648 C 164.814 268.519, 164.313 265.733, 163.573 262.457 C 162.832 259.181, 161.470 253.012, 160.545 248.750 C 159.237 242.722, 158.490 241.023, 157.182 241.105 C 156.257 241.163, 146.275 243.260, 135 245.764 M 364.743 245.691 C 363.870 247.268, 347.666 323.999, 348.112 324.445 C 348.759 325.092, 367.199 329.135, 367.613 328.720 C 367.803 328.530, 369.468 321.428, 371.313 312.938 L 374.668 297.500 378.679 297.751 L 382.691 298.002 384.377 290.329 C 386.198 282.040, 385.865 281.047, 381.250 281.015 C 378.306 280.995, 378.346 280.054, 382 263.336 C 383.650 255.787, 385 249.509, 385 249.385 C 385 249.181, 376.236 247.153, 368.345 245.531 C 366.610 245.175, 364.989 245.247, 364.743 245.691 M 327.537 256.144 C 327.272 256.890, 325.095 266.594, 322.698 277.708 L 318.341 297.916 321.296 298.565 C 323.070 298.955, 324.525 298.769, 324.938 298.100 C 325.793 296.717, 334.291 256.958, 333.830 256.497 C 333.646 256.313, 332.264 255.853, 330.757 255.475 C 328.861 254.999, 327.870 255.205, 327.537 256.144 M 243.500 259.042 L 238.500 261.984 249 261.982 L 259.500 261.981 254.285 258.991 C 251.417 257.346, 248.942 256.023, 248.785 256.050 C 248.628 256.078, 246.250 257.424, 243.500 259.042 M 56.356 274.237 L 23.211 289.285 26.168 295.892 C 27.795 299.527, 29.509 302.890, 29.979 303.366 C 30.457 303.851, 41.074 299.563, 54.118 293.618 C 66.925 287.780, 77.701 283.340, 78.064 283.752 C 78.427 284.163, 81.340 290.350, 84.537 297.500 C 87.734 304.650, 90.608 310.797, 90.925 311.161 C 91.241 311.524, 95.423 309.949, 100.218 307.661 L 108.937 303.500 99.508 281.622 C 94.321 269.590, 89.948 259.620, 89.789 259.467 C 89.630 259.314, 74.585 265.960, 56.356 274.237 M 239.813 267.123 L 239.500 270.246 226 270.373 L 212.500 270.500 212.205 277.204 L 211.911 283.908 248.955 283.976 L 286 284.044 286 277.115 L 286 270.187 277.750 270.191 C 257.012 270.201, 258 270.360, 258 267 L 258 264 249.063 264 L 240.127 264 239.813 267.123 M 411.020 265.752 C 401.732 270.418, 399.413 282.162, 406.310 289.602 C 408.660 292.135, 414.962 295.536, 430.230 302.506 C 441.631 307.711, 452.656 312.227, 454.730 312.542 C 460.416 313.404, 466.870 309.750, 469.750 304.038 C 472.635 298.316, 472.592 294.685, 469.575 289.538 C 466.724 284.672, 464.494 283.384, 439.426 272.121 C 420.225 263.494, 416.967 262.764, 411.020 265.752 M 422.524 281.962 C 421.854 283.045, 424.965 284.745, 439.867 291.441 C 445.569 294.003, 450.462 295.871, 450.740 295.593 C 452.268 294.066, 448.936 291.848, 437.363 286.689 C 423.600 280.554, 423.428 280.499, 422.524 281.962 M 161 290.438 C 143.125 294.402, 128.015 297.838, 127.423 298.073 C 126.706 298.357, 127.420 303.456, 129.553 313.297 C 131.318 321.436, 132.973 328.307, 133.232 328.566 C 133.715 329.048, 203.143 314.124, 203.944 313.365 C 204.416 312.919, 203.111 306.066, 199.827 291.750 C 198.047 283.986, 197.577 283.013, 195.660 283.115 C 194.472 283.179, 178.875 286.474, 161 290.438 M 211.426 288.331 C 211.140 289.077, 211.040 293.020, 211.203 297.094 L 211.500 304.500 237.750 304.767 L 264 305.033 264 309.517 L 264 314 275.529 314 L 287.058 314 286.779 300.750 L 286.500 287.500 249.223 287.238 C 218.593 287.022, 211.854 287.217, 211.426 288.331 M 391.476 294.650 C 390.114 297.729, 389 300.557, 389 300.934 C 389 301.451, 451.094 330.174, 457.715 332.720 C 459.347 333.348, 464.751 322.351, 463.450 321.050 C 462.662 320.262, 413.821 297.692, 398.226 290.909 L 393.952 289.051 391.476 294.650 M 214.202 296.105 L 214.500 302.211 238.549 302.060 C 251.776 301.977, 263.364 302.202, 264.299 302.561 C 265.543 303.039, 266 304.394, 266 307.607 L 266 312 275 312 L 284 312 284 301 L 284 290 248.952 290 L 213.905 290 214.202 296.105 M 163.750 304.285 C 152.266 306.827, 150 307.627, 150 309.139 C 150 311.192, 149.010 311.306, 168.500 307.006 C 177.596 304.999, 180.578 303.952, 180.823 302.679 C 181.241 300.508, 180.489 300.579, 163.750 304.285 M 387.186 309.250 C 386.137 311.587, 383.376 317.698, 381.051 322.828 C 378.726 327.959, 376.976 332.266, 377.162 332.400 C 379.024 333.740, 443.130 362.204, 443.485 361.849 C 444.876 360.457, 455.686 335.396, 455.142 334.823 C 454.425 334.067, 390.634 305, 389.692 305 C 389.363 305, 388.235 306.913, 387.186 309.250 M 81.015 329.553 C 62.598 338, 47.397 345.308, 47.235 345.795 C 46.799 347.104, 52.767 360, 53.809 360 C 54.485 360, 122.844 329.307, 123.669 328.633 C 124.402 328.034, 116.828 314.022, 115.812 314.098 C 115.091 314.152, 99.432 321.107, 81.015 329.553 M 401.720 327.289 C 401.389 328.149, 405.799 330.639, 415.002 334.789 C 429.556 341.351, 431 341.791, 431 339.674 C 431 338.586, 405.014 325.949, 402.857 325.988 C 402.503 325.995, 401.991 326.580, 401.720 327.289" stroke="none" fill="#42413f" fill-rule="evenodd"/></svg>